<svg id="svg" version="1.1" xmlns="http://www.w3.org/2000/svg" xmlns:xlink="http://www.w3.org/1999/xlink" width="400" height="116.80302076777848" viewBox="0, 0, 400,116.80302076777848"><g id="svgg"><path id="path0" d="M38.930 7.645 C 38.881 7.724,38.509 7.827,38.102 7.872 C 36.413 8.063,32.889 10.918,32.584 12.345 C 32.517 12.659,32.393 13.002,32.308 13.107 C 32.224 13.212,32.110 13.683,32.054 14.154 C 31.998 14.625,31.888 15.049,31.810 15.098 C 31.571 15.246,31.628 84.561,31.867 84.800 C 32.021 84.954,38.596 85.000,60.450 85.000 L 88.833 85.000 88.833 88.577 C 88.833 92.606,88.869 92.500,87.531 92.500 C 85.162 92.500,81.409 95.546,80.911 97.873 C 80.847 98.172,80.710 98.521,80.607 98.649 C 80.338 98.981,80.355 102.755,80.627 103.027 C 80.740 103.140,80.833 103.335,80.833 103.460 C 80.833 105.229,84.457 108.510,86.713 108.784 C 87.151 108.837,87.549 108.945,87.598 109.024 C 87.713 109.210,89.787 109.210,89.902 109.024 C 89.951 108.945,90.349 108.838,90.787 108.785 C 92.200 108.615,94.029 107.469,95.250 105.988 C 95.875 105.230,96.438 104.167,96.589 103.460 C 96.653 103.161,96.790 102.811,96.894 102.683 C 97.034 102.510,97.094 90.848,97.124 58.016 C 97.148 30.735,97.224 13.455,97.321 13.250 C 97.407 13.067,97.524 12.562,97.582 12.129 C 97.639 11.696,97.748 11.303,97.824 11.256 C 97.900 11.209,98.010 10.913,98.069 10.600 C 98.128 10.286,98.389 9.629,98.649 9.139 C 98.909 8.650,99.174 8.081,99.239 7.875 L 99.356 7.500 69.188 7.500 C 52.331 7.500,38.980 7.564,38.930 7.645 M111.764 7.643 C 111.716 7.722,111.338 7.833,110.925 7.890 C 110.242 7.983,109.895 8.109,109.167 8.529 C 109.029 8.609,108.692 8.779,108.417 8.908 C 107.867 9.166,106.428 10.569,106.076 11.190 C 105.447 12.301,105.162 12.937,105.067 13.444 C 105.009 13.752,104.896 14.045,104.814 14.095 C 104.733 14.145,104.667 16.477,104.667 19.278 L 104.667 24.369 109.724 24.309 C 113.164 24.269,114.857 24.190,115.016 24.061 C 115.145 23.957,115.491 23.820,115.785 23.758 C 116.539 23.596,117.532 23.092,117.903 22.682 C 118.076 22.490,118.306 22.333,118.413 22.333 C 118.649 22.333,119.333 21.631,119.333 21.390 C 119.333 21.296,119.489 21.077,119.680 20.904 C 120.958 19.748,121.942 14.375,121.042 13.475 C 120.927 13.360,120.831 13.150,120.828 13.008 C 120.821 12.689,120.336 11.669,120.000 11.267 C 119.030 10.107,118.254 9.333,118.061 9.333 C 117.936 9.333,117.833 9.265,117.833 9.181 C 117.833 8.922,115.674 7.960,114.895 7.872 C 114.490 7.826,114.119 7.724,114.070 7.645 C 113.954 7.457,111.880 7.456,111.764 7.643 M69.833 19.743 C 77.254 20.673,82.935 24.506,86.147 30.750 C 87.000 32.409,87.001 32.393,86.042 32.748 C 85.606 32.910,85.025 33.138,84.750 33.255 C 79.503 35.483,79.559 35.478,78.613 33.850 C 72.026 22.513,54.714 26.270,51.425 39.750 C 51.269 40.392,51.053 41.254,50.945 41.667 C 50.050 45.104,50.972 52.638,52.708 56.083 C 57.951 66.485,74.087 67.265,79.415 57.375 C 79.972 56.342,80.032 56.333,81.566 57.066 C 85.469 58.932,86.694 59.500,86.819 59.500 C 89.243 59.500,82.101 67.612,77.975 69.544 C 73.835 71.484,71.406 72.019,66.722 72.023 C 49.818 72.041,39.688 59.853,41.906 42.167 C 42.582 36.774,44.666 31.563,47.449 28.304 C 53.229 21.536,60.859 18.618,69.833 19.743 M14.670 92.457 C 14.259 92.493,13.847 92.584,13.753 92.659 C 13.660 92.734,13.321 92.849,13.000 92.916 C 12.679 92.982,12.178 93.216,11.886 93.435 C 11.594 93.654,11.292 93.833,11.214 93.833 C 11.016 93.833,9.182 95.708,8.911 96.188 C 8.190 97.461,7.971 97.999,7.884 98.713 C 7.830 99.151,7.721 99.549,7.643 99.598 C 7.456 99.713,7.457 101.954,7.643 102.069 C 7.722 102.118,7.831 102.478,7.885 102.871 C 7.980 103.570,8.634 104.993,9.098 105.513 C 9.228 105.658,9.333 105.849,9.333 105.938 C 9.333 106.137,10.542 107.333,10.744 107.333 C 10.824 107.333,11.009 107.439,11.154 107.568 C 11.710 108.065,13.118 108.693,13.880 108.785 C 14.318 108.838,14.716 108.945,14.765 109.024 C 14.906 109.252,75.000 109.207,75.000 108.979 C 75.000 108.875,74.768 108.294,74.485 107.687 C 73.575 105.733,73.523 105.595,73.408 104.833 C 73.346 104.421,73.211 103.979,73.108 103.852 C 72.854 103.538,72.851 97.968,73.104 97.648 C 73.205 97.521,73.337 97.095,73.397 96.701 C 73.507 95.983,73.541 95.888,74.055 94.861 C 74.208 94.556,74.333 94.218,74.333 94.109 C 74.333 94.001,74.483 93.632,74.667 93.290 C 74.850 92.948,75.000 92.593,75.000 92.501 C 75.000 92.341,16.469 92.299,14.670 92.457 " stroke="none" fill="#040404" fill-rule="evenodd"></path><path id="path1" d="M38.931 7.476 C 38.883 7.555,38.474 7.663,38.023 7.716 C 35.354 8.032,32.620 10.904,31.801 14.250 C 31.439 15.729,31.414 84.462,31.775 84.861 C 32.041 85.155,33.118 85.167,60.359 85.167 L 88.667 85.167 88.667 88.550 C 88.667 92.313,88.661 92.333,87.592 92.333 C 86.911 92.334,85.706 92.725,84.438 93.357 C 83.769 93.691,81.667 95.603,81.667 95.877 C 81.667 95.952,81.521 96.217,81.342 96.465 C 80.372 97.815,79.881 101.647,80.483 103.167 C 81.299 105.226,81.902 106.094,83.417 107.387 C 85.801 109.424,89.711 109.825,92.660 108.337 C 93.572 107.876,95.833 105.827,95.833 105.461 C 95.833 105.360,95.955 105.142,96.103 104.978 C 96.251 104.814,96.570 104.171,96.811 103.549 L 97.249 102.417 97.340 57.917 C 97.408 25.211,97.483 13.213,97.623 12.647 C 97.948 11.345,98.496 9.831,99.021 8.791 C 99.297 8.245,99.482 7.694,99.433 7.566 C 99.330 7.298,39.097 7.208,38.931 7.476 M111.500 7.504 C 111.271 7.585,110.674 7.774,110.175 7.923 C 109.675 8.073,109.083 8.339,108.860 8.514 C 108.637 8.690,108.369 8.833,108.264 8.833 C 108.009 8.833,106.000 10.871,106.000 11.129 C 106.000 11.242,105.939 11.333,105.864 11.333 C 105.689 11.333,105.256 12.246,104.830 13.509 C 104.520 14.431,104.498 14.867,104.539 19.460 L 104.583 24.417 109.500 24.417 C 114.730 24.417,115.849 24.263,117.207 23.361 C 118.377 22.584,118.619 22.407,119.042 22.022 C 119.294 21.792,119.500 21.517,119.500 21.411 C 119.500 21.305,119.656 21.077,119.847 20.904 C 121.645 19.277,122.010 14.691,120.567 11.843 C 119.143 9.030,114.060 6.597,111.500 7.504 M99.239 7.875 C 99.174 8.081,98.909 8.650,98.649 9.139 C 98.389 9.629,98.128 10.286,98.069 10.600 C 98.010 10.913,97.900 11.209,97.824 11.256 C 97.748 11.303,97.639 11.696,97.582 12.129 C 97.524 12.562,97.407 13.067,97.321 13.250 C 97.224 13.455,97.148 30.735,97.124 58.016 C 97.094 90.848,97.034 102.510,96.894 102.683 C 96.790 102.811,96.653 103.161,96.589 103.460 C 96.438 104.167,95.875 105.230,95.250 105.988 C 94.029 107.469,92.200 108.615,90.787 108.785 C 90.349 108.838,89.951 108.945,89.902 109.024 C 89.787 109.210,87.713 109.210,87.598 109.024 C 87.549 108.945,87.151 108.837,86.713 108.784 C 84.457 108.510,80.833 105.229,80.833 103.460 C 80.833 103.335,80.740 103.140,80.627 103.027 C 80.355 102.755,80.338 98.981,80.607 98.649 C 80.710 98.521,80.847 98.172,80.911 97.873 C 81.409 95.546,85.162 92.500,87.531 92.500 C 88.869 92.500,88.833 92.606,88.833 88.577 L 88.833 85.000 60.450 85.000 C 38.596 85.000,32.021 84.954,31.867 84.800 C 31.628 84.561,31.571 15.246,31.810 15.098 C 31.888 15.049,31.998 14.625,32.054 14.154 C 32.110 13.683,32.224 13.212,32.308 13.107 C 32.393 13.002,32.517 12.659,32.584 12.345 C 32.889 10.918,36.413 8.063,38.102 7.872 C 38.509 7.827,38.881 7.724,38.930 7.645 C 38.980 7.564,52.331 7.500,69.188 7.500 L 99.356 7.500 99.239 7.875 M114.070 7.645 C 114.119 7.724,114.490 7.826,114.895 7.872 C 115.674 7.960,117.833 8.922,117.833 9.181 C 117.833 9.265,117.936 9.333,118.061 9.333 C 118.254 9.333,119.030 10.107,120.000 11.267 C 120.336 11.669,120.821 12.689,120.828 13.008 C 120.831 13.150,120.927 13.360,121.042 13.475 C 121.942 14.375,120.958 19.748,119.680 20.904 C 119.489 21.077,119.333 21.296,119.333 21.390 C 119.333 21.631,118.649 22.333,118.413 22.333 C 118.306 22.333,118.076 22.490,117.903 22.682 C 117.532 23.092,116.539 23.596,115.785 23.758 C 115.491 23.820,115.145 23.957,115.016 24.061 C 114.857 24.190,113.164 24.269,109.724 24.309 L 104.667 24.369 104.667 19.278 C 104.667 16.477,104.733 14.145,104.814 14.095 C 104.896 14.045,105.009 13.752,105.067 13.444 C 105.162 12.937,105.447 12.301,106.076 11.190 C 106.428 10.569,107.867 9.166,108.417 8.908 C 108.692 8.779,109.029 8.609,109.167 8.529 C 109.895 8.109,110.242 7.983,110.925 7.890 C 111.338 7.833,111.716 7.722,111.764 7.643 C 111.880 7.456,113.954 7.457,114.070 7.645 M65.708 19.623 C 66.235 19.656,67.098 19.656,67.625 19.623 C 68.152 19.590,67.721 19.563,66.667 19.563 C 65.612 19.563,65.181 19.590,65.708 19.623 M63.375 19.782 C 63.535 19.823,63.798 19.823,63.958 19.782 C 64.119 19.740,63.987 19.705,63.667 19.705 C 63.346 19.705,63.215 19.740,63.375 19.782 M68.960 19.785 C 69.168 19.824,69.468 19.823,69.627 19.781 C 69.786 19.739,69.617 19.707,69.250 19.709 C 68.883 19.711,68.753 19.745,68.960 19.785 M61.167 20.000 L 60.750 20.133 61.167 20.130 C 61.396 20.129,61.808 20.070,62.083 20.000 L 62.583 19.873 62.083 19.870 C 61.808 19.868,61.396 19.927,61.167 20.000 M70.833 19.975 C 71.450 20.180,72.834 20.356,72.397 20.174 C 72.203 20.093,71.678 19.984,71.230 19.932 C 70.692 19.869,70.558 19.883,70.833 19.975 M59.083 20.500 L 58.750 20.643 59.083 20.643 C 59.267 20.643,59.567 20.579,59.750 20.500 L 60.083 20.357 59.750 20.357 C 59.567 20.357,59.267 20.421,59.083 20.500 M73.250 20.474 C 73.765 20.695,74.629 20.865,74.333 20.688 C 74.196 20.606,73.821 20.492,73.500 20.435 C 73.106 20.365,73.025 20.378,73.250 20.474 M57.417 21.089 C 57.000 21.290,56.986 21.313,57.333 21.228 C 57.806 21.113,58.336 20.842,58.083 20.846 C 57.992 20.847,57.692 20.957,57.417 21.089 M55.074 22.075 C 54.761 22.308,54.763 22.313,55.128 22.222 C 55.335 22.169,55.546 22.060,55.596 21.980 C 55.737 21.752,55.432 21.807,55.074 22.075 M77.833 22.241 C 77.833 22.287,78.058 22.441,78.333 22.583 C 78.608 22.726,78.833 22.804,78.833 22.759 C 78.833 22.713,78.608 22.559,78.333 22.417 C 78.058 22.274,77.833 22.196,77.833 22.241 M53.125 23.170 C 52.192 23.756,52.048 24.031,52.958 23.488 C 53.565 23.126,54.151 22.663,53.994 22.670 C 53.951 22.672,53.560 22.897,53.125 23.170 M79.066 22.972 C 79.122 23.062,79.550 23.411,80.018 23.747 C 80.485 24.083,80.823 24.284,80.767 24.194 C 80.712 24.104,80.283 23.756,79.816 23.420 C 79.348 23.084,79.011 22.882,79.066 22.972 M51.250 24.518 C 50.139 25.415,48.797 26.729,47.948 27.750 C 47.567 28.208,48.042 27.793,49.003 26.828 C 49.964 25.862,51.087 24.797,51.500 24.462 C 51.913 24.126,52.212 23.850,52.167 23.848 C 52.121 23.847,51.708 24.148,51.250 24.518 M82.333 25.750 C 83.108 26.529,83.780 27.167,83.826 27.167 C 83.872 27.167,83.275 26.529,82.500 25.750 C 81.725 24.971,81.053 24.333,81.007 24.333 C 80.962 24.333,81.558 24.971,82.333 25.750 M63.519 27.347 C 63.116 27.426,62.741 27.537,62.685 27.593 C 62.583 27.696,63.401 27.578,64.500 27.331 C 65.325 27.146,64.472 27.159,63.519 27.347 M68.333 27.317 C 70.652 27.658,70.781 27.670,70.250 27.497 C 69.975 27.407,69.225 27.300,68.583 27.258 C 67.484 27.187,67.470 27.191,68.333 27.317 M84.765 28.708 C 85.801 30.227,85.984 30.455,85.664 29.833 C 85.400 29.319,83.998 27.333,83.899 27.333 C 83.859 27.333,84.249 27.952,84.765 28.708 M61.417 27.911 C 60.773 28.205,61.072 28.210,61.833 27.917 C 62.154 27.793,62.304 27.690,62.167 27.687 C 62.029 27.684,61.692 27.785,61.417 27.911 M71.167 27.805 C 71.304 27.890,71.604 28.010,71.833 28.071 C 72.123 28.149,72.174 28.135,72.000 28.028 C 71.862 27.943,71.563 27.824,71.333 27.762 C 71.044 27.685,70.993 27.698,71.167 27.805 M59.792 28.594 C 59.356 28.821,59.000 29.044,59.000 29.089 C 59.000 29.164,60.650 28.384,60.819 28.230 C 61.026 28.042,60.484 28.234,59.792 28.594 M72.667 28.417 C 72.896 28.548,73.158 28.655,73.250 28.655 C 73.342 28.655,73.229 28.548,73.000 28.417 C 72.771 28.286,72.508 28.178,72.417 28.178 C 72.325 28.178,72.438 28.286,72.667 28.417 M46.707 29.252 C 46.222 30.001,46.333 30.000,46.905 29.250 C 47.150 28.929,47.290 28.668,47.217 28.669 C 47.143 28.670,46.914 28.932,46.707 29.252 M73.500 28.723 C 73.500 28.766,73.846 29.004,74.268 29.252 C 74.690 29.499,75.580 30.200,76.244 30.809 L 77.452 31.917 76.172 30.667 C 75.092 29.612,73.500 28.454,73.500 28.723 M57.983 29.686 C 57.086 30.322,55.326 32.014,54.621 32.917 C 54.335 33.283,54.723 32.927,55.482 32.125 C 56.242 31.323,57.306 30.356,57.848 29.976 C 58.737 29.352,58.950 29.167,58.775 29.167 C 58.743 29.167,58.387 29.400,57.983 29.686 M46.064 30.208 C 45.490 31.182,45.452 31.265,45.745 30.917 C 46.083 30.513,46.375 30.000,46.266 30.000 C 46.222 30.000,46.131 30.094,46.064 30.208 M78.350 33.407 C 78.542 33.733,78.732 34.000,78.771 34.000 C 78.889 34.000,78.348 33.029,78.168 32.917 C 78.075 32.860,78.157 33.080,78.350 33.407 M82.750 33.923 C 82.333 34.123,82.319 34.146,82.667 34.062 C 83.139 33.946,83.670 33.676,83.417 33.679 C 83.325 33.681,83.025 33.790,82.750 33.923 M43.519 35.185 C 43.416 35.480,43.361 35.750,43.397 35.786 C 43.432 35.821,43.545 35.609,43.648 35.315 C 43.751 35.020,43.806 34.750,43.770 34.714 C 43.734 34.679,43.621 34.891,43.519 35.185 M80.333 34.833 C 80.111 34.977,80.111 34.995,80.333 34.995 C 80.471 34.995,80.696 34.922,80.833 34.833 C 81.056 34.690,81.056 34.672,80.833 34.672 C 80.696 34.672,80.471 34.744,80.333 34.833 M52.917 35.500 C 52.774 35.775,52.696 36.000,52.741 36.000 C 52.787 36.000,52.941 35.775,53.083 35.500 C 53.226 35.225,53.304 35.000,53.259 35.000 C 53.213 35.000,53.059 35.225,52.917 35.500 M43.095 36.429 C 43.034 36.673,43.016 36.905,43.055 36.944 C 43.094 36.983,43.177 36.816,43.238 36.571 C 43.299 36.327,43.317 36.095,43.278 36.056 C 43.239 36.017,43.157 36.184,43.095 36.429 M52.189 36.984 C 51.698 38.126,51.758 38.291,52.262 37.183 C 52.487 36.687,52.642 36.254,52.608 36.219 C 52.574 36.185,52.385 36.529,52.189 36.984 M42.583 38.167 C 42.520 38.455,42.503 38.725,42.545 38.768 C 42.588 38.810,42.671 38.605,42.729 38.313 C 42.868 37.618,42.733 37.483,42.583 38.167 M51.429 39.095 C 51.367 39.339,51.349 39.571,51.389 39.611 C 51.428 39.650,51.510 39.482,51.571 39.238 C 51.633 38.994,51.651 38.762,51.611 38.723 C 51.572 38.683,51.490 38.851,51.429 39.095 M42.076 40.576 C 42.012 41.001,41.997 41.386,42.043 41.432 C 42.089 41.478,42.179 41.168,42.242 40.742 C 42.306 40.317,42.321 39.932,42.275 39.886 C 42.229 39.840,42.140 40.151,42.076 40.576 M50.997 40.763 C 50.891 41.275,50.841 41.730,50.886 41.775 C 50.931 41.820,51.013 41.627,51.067 41.345 C 51.122 41.064,51.210 40.608,51.263 40.333 C 51.316 40.058,51.322 39.833,51.275 39.833 C 51.228 39.833,51.103 40.252,50.997 40.763 M50.705 42.833 C 50.705 43.154,50.740 43.285,50.782 43.125 C 50.823 42.965,50.823 42.702,50.782 42.542 C 50.740 42.381,50.705 42.512,50.705 42.833 M41.641 45.125 C 41.609 46.019,41.626 47.500,41.679 48.417 C 41.755 49.747,41.780 49.418,41.804 46.792 C 41.835 43.337,41.738 42.351,41.641 45.125 M50.567 46.250 C 50.568 47.717,50.593 48.294,50.624 47.534 C 50.655 46.773,50.655 45.573,50.624 44.867 C 50.593 44.161,50.567 44.783,50.567 46.250 M50.705 49.667 C 50.705 49.987,50.740 50.119,50.782 49.958 C 50.823 49.798,50.823 49.535,50.782 49.375 C 50.740 49.215,50.705 49.346,50.705 49.667 M50.870 50.750 C 50.871 50.933,50.930 51.308,51.000 51.583 C 51.114 52.032,51.128 52.041,51.130 51.667 C 51.132 51.438,51.073 51.063,51.000 50.833 C 50.895 50.507,50.867 50.489,50.870 50.750 M42.036 52.250 C 42.035 52.525,42.093 52.938,42.167 53.167 L 42.300 53.583 42.297 53.167 C 42.295 52.938,42.237 52.525,42.167 52.250 L 42.039 51.750 42.036 52.250 M42.528 54.583 C 42.526 54.767,42.588 55.067,42.667 55.250 C 42.849 55.675,42.849 55.237,42.667 54.667 C 42.559 54.332,42.532 54.315,42.528 54.583 M43.023 56.167 C 43.023 56.304,43.088 56.567,43.167 56.750 C 43.257 56.960,43.310 56.991,43.310 56.833 C 43.310 56.696,43.245 56.433,43.167 56.250 C 43.076 56.040,43.023 56.009,43.023 56.167 M79.847 56.560 C 80.044 56.729,80.851 56.830,80.754 56.673 C 80.695 56.578,80.451 56.500,80.212 56.500 C 79.973 56.500,79.809 56.527,79.847 56.560 M79.333 57.500 C 79.146 57.867,79.031 58.167,79.077 58.167 C 79.122 58.167,79.313 57.867,79.500 57.500 C 79.687 57.133,79.803 56.833,79.757 56.833 C 79.711 56.833,79.520 57.133,79.333 57.500 M43.345 57.250 C 43.345 57.342,43.452 57.604,43.583 57.833 C 43.714 58.063,43.822 58.175,43.822 58.083 C 43.822 57.992,43.714 57.729,43.583 57.500 C 43.452 57.271,43.345 57.158,43.345 57.250 M53.859 58.184 C 54.592 59.229,56.775 61.385,57.400 61.681 C 57.592 61.772,57.488 61.637,57.168 61.382 C 55.938 60.400,54.961 59.405,54.147 58.307 C 53.098 56.892,52.891 56.804,53.859 58.184 M82.333 57.583 C 82.563 57.714,82.825 57.822,82.917 57.822 C 83.008 57.822,82.896 57.714,82.667 57.583 C 82.438 57.452,82.175 57.345,82.083 57.345 C 81.992 57.345,82.104 57.452,82.333 57.583 M43.845 58.417 C 43.845 58.508,43.952 58.771,44.083 59.000 C 44.214 59.229,44.322 59.342,44.322 59.250 C 44.322 59.158,44.214 58.896,44.083 58.667 C 43.952 58.438,43.845 58.325,43.845 58.417 M85.500 59.083 C 85.729 59.214,85.992 59.322,86.083 59.322 C 86.175 59.322,86.063 59.214,85.833 59.083 C 85.604 58.952,85.342 58.845,85.250 58.845 C 85.158 58.845,85.271 58.952,85.500 59.083 M77.344 60.215 C 76.493 61.168,76.436 61.262,77.066 60.667 C 77.755 60.016,78.626 58.987,78.470 59.007 C 78.441 59.011,77.934 59.554,77.344 60.215 M45.245 61.156 C 45.384 61.425,45.573 61.692,45.666 61.749 C 45.758 61.807,45.676 61.586,45.484 61.260 C 45.062 60.545,44.890 60.470,45.245 61.156 M86.263 61.641 C 86.119 61.919,85.625 62.657,85.164 63.282 C 84.594 64.053,84.517 64.204,84.922 63.753 C 85.674 62.917,86.728 61.339,86.612 61.223 C 86.564 61.175,86.407 61.363,86.263 61.641 M75.494 61.845 L 74.917 62.357 75.542 61.909 C 76.094 61.513,76.274 61.333,76.119 61.333 C 76.092 61.333,75.811 61.564,75.494 61.845 M57.833 61.910 C 57.833 62.024,59.338 62.884,59.411 62.811 C 59.445 62.777,59.104 62.543,58.653 62.291 C 58.202 62.039,57.833 61.868,57.833 61.910 M46.261 62.583 C 47.459 64.296,50.216 67.027,51.250 67.525 C 51.433 67.613,51.360 67.512,51.087 67.301 C 49.719 66.243,48.306 64.914,47.460 63.889 C 46.037 62.165,45.749 61.850,46.261 62.583 M59.667 62.929 C 59.667 63.042,60.532 63.356,60.615 63.274 C 60.653 63.236,60.455 63.125,60.175 63.028 C 59.895 62.930,59.667 62.886,59.667 62.929 M71.917 63.584 L 71.417 63.820 71.917 63.721 C 72.192 63.666,72.529 63.559,72.667 63.483 C 73.115 63.233,72.479 63.319,71.917 63.584 M62.750 63.996 C 63.068 64.137,64.131 64.232,63.986 64.107 C 63.948 64.073,63.579 64.002,63.167 63.947 C 62.666 63.881,62.527 63.897,62.750 63.996 M70.083 64.000 L 69.583 64.127 70.083 64.135 C 70.358 64.140,70.733 64.079,70.917 64.000 L 71.250 63.857 70.917 63.865 C 70.733 63.869,70.358 63.930,70.083 64.000 M83.123 65.589 C 82.504 66.182,82.056 66.667,82.128 66.667 C 82.201 66.667,82.743 66.179,83.333 65.583 C 84.715 64.189,84.583 64.193,83.123 65.589 M79.994 68.179 L 79.417 68.691 80.042 68.242 C 80.594 67.846,80.774 67.667,80.619 67.667 C 80.592 67.667,80.311 67.897,79.994 68.179 M78.417 69.167 C 77.958 69.439,77.645 69.662,77.720 69.664 C 77.883 69.667,79.333 68.832,79.333 68.734 C 79.333 68.627,79.296 68.645,78.417 69.167 M55.167 69.763 C 55.167 69.875,56.032 70.190,56.115 70.107 C 56.153 70.069,55.955 69.959,55.675 69.861 C 55.395 69.764,55.167 69.719,55.167 69.763 M75.750 70.423 C 75.331 70.624,75.318 70.647,75.667 70.563 C 75.896 70.508,76.155 70.396,76.242 70.315 C 76.458 70.113,76.339 70.139,75.750 70.423 M58.250 70.923 C 58.525 71.049,58.862 71.149,59.000 71.146 C 59.137 71.144,58.987 71.040,58.667 70.917 C 57.906 70.624,57.606 70.628,58.250 70.923 M74.357 70.858 C 74.049 70.946,73.828 71.050,73.866 71.088 C 73.950 71.172,75.167 70.849,75.167 70.742 C 75.167 70.644,75.034 70.663,74.357 70.858 M59.750 71.315 C 59.933 71.393,60.421 71.503,60.833 71.559 C 61.327 71.625,61.441 71.613,61.167 71.523 C 60.544 71.318,59.346 71.142,59.750 71.315 M72.250 71.424 L 71.417 71.648 72.167 71.553 C 72.579 71.500,73.067 71.397,73.250 71.323 C 73.770 71.112,73.184 71.172,72.250 71.424 M62.833 71.841 C 63.154 71.908,64.279 71.997,65.333 72.039 C 66.387 72.081,66.987 72.060,66.667 71.993 C 66.346 71.925,65.221 71.836,64.167 71.795 C 63.112 71.753,62.512 71.774,62.833 71.841 M68.750 71.833 L 67.250 71.937 68.667 71.949 C 69.446 71.955,70.308 71.903,70.583 71.833 C 71.191 71.679,70.986 71.679,68.750 71.833 M14.583 92.337 C 9.779 93.051,6.390 98.177,7.643 102.833 C 8.448 105.828,11.315 108.649,13.856 108.950 C 14.307 109.004,14.716 109.112,14.765 109.190 C 14.946 109.483,74.998 109.366,75.110 109.073 C 75.165 108.929,74.997 108.386,74.737 107.864 C 73.826 106.043,73.423 104.670,73.140 102.417 C 72.960 100.986,73.101 97.727,73.349 97.573 C 73.432 97.522,73.500 97.313,73.500 97.109 C 73.500 96.760,74.011 95.145,74.317 94.531 C 74.758 93.643,75.167 92.625,75.167 92.412 C 75.167 92.144,16.373 92.072,14.583 92.337 M75.000 92.501 C 75.000 92.593,74.850 92.948,74.667 93.290 C 74.483 93.632,74.333 94.001,74.333 94.109 C 74.333 94.218,74.208 94.556,74.055 94.861 C 73.541 95.888,73.507 95.983,73.397 96.701 C 73.337 97.095,73.205 97.521,73.104 97.648 C 72.851 97.968,72.854 103.538,73.108 103.852 C 73.211 103.979,73.346 104.421,73.408 104.833 C 73.523 105.595,73.575 105.733,74.485 107.687 C 74.768 108.294,75.000 108.875,75.000 108.979 C 75.000 109.207,14.906 109.252,14.765 109.024 C 14.716 108.945,14.318 108.838,13.880 108.785 C 13.118 108.693,11.710 108.065,11.154 107.568 C 11.009 107.439,10.824 107.333,10.744 107.333 C 10.542 107.333,9.333 106.137,9.333 105.938 C 9.333 105.849,9.228 105.658,9.098 105.513 C 8.634 104.993,7.980 103.570,7.885 102.871 C 7.831 102.478,7.722 102.118,7.643 102.069 C 7.457 101.954,7.456 99.713,7.643 99.598 C 7.721 99.549,7.830 99.151,7.884 98.713 C 7.971 97.999,8.190 97.461,8.911 96.188 C 9.182 95.708,11.016 93.833,11.214 93.833 C 11.292 93.833,11.594 93.654,11.886 93.435 C 12.178 93.216,12.679 92.982,13.000 92.916 C 13.321 92.849,13.660 92.734,13.753 92.659 C 13.847 92.584,14.259 92.493,14.670 92.457 C 16.469 92.299,75.000 92.341,75.000 92.501 " stroke="none" fill="#347d44" fill-rule="evenodd"></path><path id="path2" d="M37.089 0.195 C 36.359 0.278,35.722 0.407,35.673 0.482 C 35.623 0.557,35.302 0.670,34.958 0.734 C 34.615 0.797,34.333 0.912,34.333 0.989 C 34.333 1.066,34.071 1.179,33.750 1.239 C 33.429 1.299,33.167 1.414,33.167 1.494 C 33.167 1.575,32.942 1.690,32.667 1.750 C 32.392 1.810,32.167 1.927,32.167 2.010 C 32.167 2.093,31.979 2.207,31.750 2.265 C 31.521 2.322,31.333 2.439,31.333 2.523 C 31.333 2.608,31.202 2.727,31.042 2.788 C 30.881 2.849,30.525 3.108,30.250 3.365 C 29.975 3.622,29.698 3.832,29.635 3.833 C 29.474 3.834,28.000 5.302,28.000 5.462 C 28.000 5.534,27.869 5.710,27.708 5.854 C 27.548 5.997,27.304 6.286,27.167 6.494 C 27.029 6.703,26.827 6.968,26.717 7.084 C 26.607 7.199,26.467 7.490,26.407 7.730 C 26.347 7.970,26.236 8.167,26.162 8.167 C 26.087 8.167,25.977 8.392,25.917 8.667 C 25.856 8.942,25.744 9.167,25.667 9.167 C 25.590 9.167,25.477 9.392,25.417 9.667 C 25.356 9.942,25.245 10.167,25.169 10.167 C 25.093 10.167,24.978 10.560,24.912 11.042 C 24.847 11.523,24.708 11.970,24.605 12.036 C 24.466 12.123,24.405 21.690,24.373 48.360 C 24.338 76.896,24.285 84.594,24.123 84.697 C 24.009 84.769,21.498 84.829,18.542 84.831 C 15.544 84.832,13.167 84.898,13.167 84.981 C 13.167 85.062,12.679 85.180,12.083 85.244 C 11.487 85.308,11.000 85.419,11.000 85.492 C 11.000 85.565,10.700 85.672,10.333 85.731 C 9.967 85.789,9.667 85.905,9.667 85.989 C 9.667 86.072,9.442 86.190,9.167 86.250 C 8.892 86.310,8.667 86.423,8.667 86.500 C 8.667 86.577,8.442 86.690,8.167 86.750 C 7.892 86.810,7.667 86.929,7.667 87.013 C 7.667 87.098,7.552 87.167,7.411 87.167 C 7.271 87.167,7.113 87.279,7.060 87.417 C 7.008 87.554,6.866 87.667,6.745 87.667 C 6.624 87.667,6.301 87.892,6.026 88.167 C 5.751 88.442,5.451 88.667,5.359 88.667 C 5.145 88.667,3.667 90.141,3.667 90.354 C 3.667 90.443,3.492 90.681,3.279 90.883 C 3.066 91.085,2.844 91.381,2.784 91.542 C 2.725 91.702,2.608 91.833,2.523 91.833 C 2.439 91.833,2.322 92.021,2.265 92.250 C 2.207 92.479,2.093 92.667,2.010 92.667 C 1.927 92.667,1.810 92.892,1.750 93.167 C 1.690 93.442,1.572 93.667,1.489 93.667 C 1.405 93.667,1.289 93.967,1.231 94.333 C 1.172 94.700,1.065 95.000,0.992 95.000 C 0.919 95.000,0.807 95.244,0.742 95.542 C 0.678 95.840,0.557 96.127,0.474 96.179 C -0.059 96.520,-0.051 104.818,0.483 105.159 C 0.561 105.209,0.679 105.569,0.744 105.958 C 0.809 106.348,0.925 106.667,1.001 106.667 C 1.078 106.667,1.190 106.892,1.250 107.167 C 1.310 107.442,1.423 107.667,1.500 107.667 C 1.577 107.667,1.690 107.892,1.750 108.167 C 1.810 108.442,1.921 108.667,1.995 108.667 C 2.070 108.667,2.178 108.854,2.235 109.083 C 2.293 109.312,2.413 109.500,2.503 109.500 C 2.593 109.500,2.667 109.615,2.667 109.755 C 2.667 109.896,2.779 110.054,2.917 110.106 C 3.054 110.159,3.167 110.313,3.167 110.448 C 3.167 110.761,5.666 113.258,6.125 113.403 C 6.314 113.464,6.511 113.622,6.563 113.756 C 6.614 113.890,6.771 114.000,6.911 114.000 C 7.052 114.000,7.167 114.074,7.167 114.163 C 7.167 114.253,7.354 114.374,7.583 114.432 C 7.812 114.489,8.000 114.597,8.000 114.671 C 8.000 114.746,8.225 114.856,8.500 114.917 C 8.775 114.977,9.000 115.090,9.000 115.167 C 9.000 115.244,9.225 115.356,9.500 115.417 C 9.775 115.477,10.000 115.589,10.000 115.665 C 10.000 115.742,10.319 115.857,10.708 115.922 C 11.098 115.988,11.454 116.099,11.500 116.170 C 11.996 116.937,92.863 116.928,93.337 116.161 C 93.386 116.081,93.743 115.965,94.130 115.903 C 94.517 115.841,94.833 115.733,94.833 115.663 C 94.833 115.593,95.039 115.485,95.290 115.422 C 95.541 115.358,95.785 115.257,95.832 115.195 C 95.878 115.133,96.273 114.909,96.708 114.696 C 97.144 114.484,97.500 114.240,97.500 114.155 C 97.500 114.070,97.613 114.000,97.752 114.000 C 97.890 114.000,98.132 113.850,98.289 113.667 C 98.446 113.483,98.638 113.333,98.717 113.333 C 98.967 113.333,101.283 110.922,101.406 110.534 C 101.471 110.329,101.591 110.203,101.674 110.254 C 101.756 110.305,101.871 110.156,101.930 109.923 C 101.988 109.691,102.095 109.500,102.167 109.500 C 102.238 109.500,102.344 109.313,102.402 109.083 C 102.459 108.854,102.574 108.667,102.657 108.667 C 102.739 108.667,102.856 108.442,102.917 108.167 C 102.977 107.892,103.096 107.667,103.180 107.667 C 103.264 107.667,103.333 107.554,103.333 107.417 C 103.333 107.279,103.400 107.167,103.481 107.167 C 103.563 107.167,103.679 106.904,103.739 106.583 C 103.799 106.263,103.911 106.000,103.988 106.000 C 104.065 106.000,104.182 105.569,104.248 105.042 C 104.313 104.515,104.453 104.030,104.559 103.964 C 104.702 103.876,104.762 94.724,104.796 67.839 L 104.841 31.833 110.254 31.833 C 113.231 31.833,115.667 31.768,115.667 31.688 C 115.667 31.608,116.192 31.491,116.833 31.428 C 117.475 31.365,118.000 31.251,118.000 31.175 C 118.000 31.099,118.263 30.988,118.583 30.928 C 118.904 30.867,119.167 30.748,119.167 30.661 C 119.167 30.575,119.462 30.457,119.823 30.399 C 120.184 30.341,120.519 30.190,120.568 30.064 C 120.616 29.937,120.771 29.833,120.911 29.833 C 121.052 29.833,121.167 29.766,121.167 29.685 C 121.167 29.603,121.354 29.489,121.583 29.432 C 121.813 29.374,122.000 29.253,122.000 29.163 C 122.000 29.074,122.115 29.000,122.255 29.000 C 122.396 29.000,122.553 28.890,122.604 28.756 C 122.655 28.622,122.845 28.466,123.026 28.408 C 123.394 28.292,125.167 26.551,125.167 26.307 C 125.167 26.221,125.354 25.977,125.583 25.765 C 125.813 25.552,126.000 25.291,126.000 25.184 C 126.000 25.077,126.106 24.949,126.235 24.899 C 126.364 24.850,126.516 24.627,126.571 24.405 C 126.627 24.182,126.741 24.000,126.823 24.000 C 126.906 24.000,127.023 23.775,127.083 23.500 C 127.144 23.225,127.262 23.000,127.347 23.000 C 127.431 23.000,127.500 22.887,127.500 22.750 C 127.500 22.613,127.575 22.500,127.667 22.500 C 127.758 22.500,127.836 22.331,127.839 22.125 C 127.842 21.919,127.990 21.450,128.167 21.083 C 128.344 20.717,128.491 20.217,128.494 19.972 C 128.497 19.728,128.592 19.497,128.705 19.459 C 128.985 19.366,129.007 12.712,128.729 12.536 C 128.625 12.470,128.487 12.023,128.421 11.542 C 128.356 11.060,128.242 10.667,128.170 10.667 C 128.097 10.667,127.988 10.404,127.928 10.083 C 127.867 9.762,127.747 9.500,127.659 9.500 C 127.572 9.500,127.500 9.387,127.500 9.250 C 127.500 9.112,127.431 9.000,127.347 9.000 C 127.262 9.000,127.144 8.775,127.083 8.500 C 127.023 8.225,126.904 8.000,126.820 8.000 C 126.736 8.000,126.667 7.893,126.667 7.762 C 126.667 7.631,126.564 7.421,126.439 7.296 C 126.313 7.170,126.158 6.901,126.093 6.698 C 126.029 6.495,125.906 6.372,125.821 6.424 C 125.736 6.477,125.667 6.395,125.667 6.243 C 125.667 5.939,122.978 3.167,122.683 3.167 C 122.582 3.167,122.500 3.093,122.500 3.003 C 122.500 2.913,122.313 2.793,122.083 2.735 C 121.854 2.678,121.667 2.568,121.667 2.491 C 121.667 2.351,121.000 1.933,120.458 1.735 C 120.298 1.676,120.167 1.562,120.167 1.481 C 120.167 1.400,120.035 1.333,119.875 1.332 C 119.715 1.332,119.382 1.226,119.136 1.098 C 118.890 0.970,118.440 0.811,118.136 0.745 C 117.832 0.679,117.545 0.565,117.499 0.493 C 117.189 0.010,41.180 -0.271,37.089 0.195 M99.640 7.384 C 99.774 7.546,99.672 7.891,99.239 8.737 C 98.643 9.900,98.130 11.284,97.790 12.647 C 97.648 13.214,97.572 25.064,97.500 57.583 C 97.425 91.552,97.356 101.942,97.199 102.583 C 96.862 103.961,96.471 104.880,95.924 105.583 C 95.638 105.950,95.274 106.456,95.115 106.708 C 94.956 106.960,94.728 107.167,94.609 107.167 C 94.489 107.167,94.210 107.362,93.987 107.600 C 92.847 108.824,88.656 109.950,87.434 109.362 C 87.241 109.269,86.777 109.150,86.403 109.099 C 85.599 108.988,83.951 108.144,83.420 107.572 C 83.214 107.349,82.962 107.167,82.860 107.167 C 82.758 107.167,82.544 106.960,82.386 106.708 C 82.227 106.456,81.920 106.066,81.703 105.841 C 81.487 105.615,81.118 105.015,80.884 104.507 C 80.649 103.999,80.373 103.403,80.270 103.183 C 80.025 102.657,80.025 98.792,80.270 98.482 C 80.371 98.354,80.504 98.025,80.566 97.750 C 80.704 97.135,81.196 96.167,81.371 96.167 C 81.442 96.167,81.500 96.067,81.500 95.945 C 81.500 95.480,83.892 93.424,85.000 92.936 C 85.596 92.674,86.214 92.394,86.373 92.313 C 86.532 92.233,86.957 92.167,87.317 92.167 C 88.557 92.167,88.500 92.337,88.500 88.649 L 88.500 85.333 60.176 85.333 L 31.852 85.333 31.593 84.963 C 31.301 84.546,31.185 15.111,31.476 14.931 C 31.555 14.883,31.663 14.472,31.717 14.018 C 31.771 13.564,31.886 13.055,31.973 12.888 C 32.060 12.720,32.217 12.396,32.322 12.167 C 32.427 11.938,32.616 11.572,32.741 11.354 C 33.031 10.848,34.971 8.880,35.437 8.616 C 36.726 7.890,37.345 7.636,38.047 7.550 C 38.485 7.496,38.883 7.388,38.931 7.310 C 39.089 7.055,99.428 7.129,99.640 7.384 M114.936 7.468 C 115.661 7.614,116.861 8.154,118.201 8.937 C 119.391 9.633,121.072 12.024,121.264 13.294 C 121.323 13.684,121.438 14.045,121.519 14.095 C 121.732 14.226,121.701 17.283,121.480 17.988 C 120.535 21.008,118.207 23.565,115.917 24.097 C 115.642 24.160,115.311 24.296,115.183 24.398 C 114.806 24.696,104.668 24.770,104.482 24.476 C 104.292 24.176,104.291 14.046,104.481 13.928 C 104.562 13.878,104.676 13.588,104.733 13.284 C 105.009 11.810,107.048 9.196,108.417 8.560 C 108.692 8.433,109.029 8.266,109.167 8.190 C 109.919 7.774,110.214 7.663,110.830 7.565 C 111.202 7.505,111.551 7.385,111.605 7.299 C 111.717 7.117,113.687 7.217,114.936 7.468 M64.833 19.841 C 64.237 19.923,63.112 20.060,62.333 20.147 C 60.524 20.349,58.332 20.881,57.495 21.323 C 57.354 21.397,56.998 21.511,56.703 21.575 C 56.408 21.640,56.167 21.756,56.167 21.833 C 56.167 21.910,55.942 22.023,55.667 22.083 C 55.392 22.144,55.167 22.256,55.167 22.333 C 55.167 22.410,54.942 22.523,54.667 22.583 C 54.392 22.644,54.167 22.745,54.167 22.809 C 54.167 22.872,53.887 23.073,53.545 23.254 C 51.906 24.122,49.141 26.609,47.525 28.667 C 47.057 29.262,46.598 29.841,46.504 29.951 C 46.410 30.062,46.333 30.206,46.333 30.272 C 46.333 30.337,46.232 30.509,46.108 30.654 C 45.984 30.798,45.703 31.254,45.483 31.667 C 45.263 32.079,45.046 32.454,45.000 32.500 C 44.838 32.661,44.167 34.122,44.167 34.312 C 44.167 34.418,44.095 34.635,44.008 34.794 C 43.679 35.395,43.355 36.270,43.253 36.833 C 43.195 37.154,43.079 37.567,42.996 37.750 C 42.768 38.252,42.489 39.739,42.307 41.417 C 42.217 42.242,42.069 43.179,41.978 43.500 C 41.654 44.644,42.078 52.891,42.488 53.410 C 42.563 53.505,42.679 53.958,42.745 54.417 C 42.811 54.875,42.924 55.325,42.996 55.417 C 43.069 55.508,43.181 55.846,43.246 56.167 C 43.311 56.487,43.539 57.127,43.753 57.589 C 43.967 58.050,44.193 58.631,44.256 58.880 C 44.318 59.130,44.436 59.333,44.518 59.333 C 44.600 59.333,44.667 59.417,44.667 59.520 C 44.667 59.714,45.771 61.609,46.076 61.938 C 46.172 62.041,46.362 62.298,46.500 62.508 C 47.124 63.463,50.388 66.825,50.696 66.831 C 50.759 66.832,50.909 66.927,51.030 67.042 C 51.824 67.793,54.954 69.542,56.167 69.913 C 56.396 69.983,56.658 70.098,56.750 70.168 C 56.842 70.238,57.177 70.351,57.495 70.419 C 57.812 70.487,58.187 70.602,58.328 70.675 C 60.606 71.862,69.220 72.140,72.917 71.147 C 74.990 70.590,77.292 69.722,78.167 69.168 C 78.304 69.081,78.654 68.889,78.943 68.743 C 79.233 68.596,79.601 68.332,79.761 68.155 C 79.921 67.978,80.146 67.833,80.262 67.833 C 80.378 67.833,80.497 67.777,80.528 67.708 C 80.558 67.640,80.953 67.286,81.406 66.922 C 83.604 65.154,85.452 62.987,86.703 60.709 C 87.100 59.985,87.080 59.855,86.542 59.656 C 86.058 59.479,84.668 58.833,81.918 57.510 C 80.317 56.739,79.833 56.637,79.833 57.070 C 79.833 58.096,75.530 62.667,74.564 62.667 C 74.452 62.667,74.336 62.723,74.306 62.792 C 74.216 62.994,72.743 63.667,72.390 63.667 C 72.212 63.667,71.995 63.738,71.908 63.825 C 71.050 64.681,62.484 64.676,61.592 63.819 C 61.505 63.735,61.332 63.667,61.208 63.667 C 60.922 63.667,58.327 62.544,58.167 62.350 C 58.121 62.295,57.657 61.963,57.137 61.613 C 56.360 61.090,54.495 59.271,53.745 58.305 C 53.235 57.648,52.001 55.383,51.999 55.100 C 51.998 54.999,51.893 54.715,51.765 54.470 C 51.636 54.224,51.477 53.776,51.411 53.475 C 51.345 53.174,51.232 52.813,51.159 52.672 C 50.417 51.232,50.144 44.053,50.735 41.500 C 51.447 38.420,52.692 35.054,53.190 34.861 C 53.269 34.831,53.333 34.718,53.333 34.611 C 53.333 34.122,55.315 31.756,56.845 30.417 C 58.002 29.404,60.725 27.842,61.342 27.836 C 61.484 27.834,61.671 27.765,61.758 27.681 C 62.530 26.940,70.664 26.930,71.403 27.669 C 71.493 27.759,71.684 27.833,71.828 27.833 C 73.053 27.833,76.580 30.422,77.843 32.246 C 78.158 32.702,78.476 33.152,78.550 33.246 C 78.623 33.340,78.859 33.754,79.074 34.167 C 79.290 34.579,79.530 34.913,79.608 34.908 C 80.089 34.879,81.000 34.608,81.000 34.495 C 81.000 34.421,81.230 34.309,81.511 34.248 C 81.792 34.186,82.224 34.030,82.470 33.902 C 82.715 33.774,82.999 33.668,83.099 33.668 C 83.273 33.667,84.084 33.324,84.706 32.989 C 84.865 32.904,85.090 32.831,85.206 32.828 C 85.322 32.825,85.695 32.690,86.034 32.529 L 86.652 32.237 85.968 30.910 C 84.521 28.102,82.069 25.301,79.372 23.375 C 79.083 23.169,78.769 23.000,78.673 23.000 C 78.578 23.000,78.500 22.933,78.500 22.851 C 78.500 22.770,78.313 22.656,78.083 22.598 C 77.854 22.541,77.667 22.420,77.667 22.330 C 77.667 22.240,77.573 22.164,77.458 22.161 C 77.344 22.158,76.950 22.010,76.583 21.833 C 76.217 21.656,75.823 21.509,75.708 21.506 C 75.594 21.503,75.500 21.432,75.500 21.348 C 75.500 21.264,75.200 21.145,74.834 21.083 C 74.468 21.022,74.130 20.910,74.084 20.834 C 74.038 20.759,73.606 20.645,73.125 20.580 C 72.644 20.515,72.137 20.403,72.000 20.332 C 71.768 20.211,68.963 19.898,66.833 19.754 C 66.329 19.720,65.429 19.759,64.833 19.841 M186.167 51.583 C 186.167 57.313,186.131 62.000,186.087 62.000 C 186.043 62.000,185.601 61.587,185.105 61.083 C 184.609 60.579,184.117 60.167,184.013 60.167 C 183.908 60.167,183.780 60.054,183.727 59.917 C 183.674 59.779,183.545 59.666,183.441 59.666 C 183.336 59.665,182.739 59.403,182.115 59.083 C 181.491 58.762,180.849 58.500,180.690 58.500 C 180.530 58.500,180.323 58.423,180.230 58.330 C 180.136 58.236,179.559 58.113,178.947 58.056 C 178.334 57.999,177.833 57.892,177.833 57.820 C 177.833 57.747,176.933 57.689,175.833 57.690 C 174.733 57.691,173.833 57.750,173.833 57.821 C 173.833 57.892,173.220 57.998,172.470 58.056 C 171.720 58.114,171.064 58.226,171.012 58.306 C 170.916 58.453,169.702 58.751,169.446 58.691 C 169.370 58.673,169.351 58.727,169.403 58.811 C 169.455 58.895,169.235 59.013,168.915 59.073 C 168.595 59.133,168.333 59.247,168.333 59.328 C 168.333 59.408,168.108 59.523,167.833 59.583 C 167.558 59.644,167.333 59.754,167.333 59.829 C 167.333 59.903,167.146 60.011,166.917 60.068 C 166.688 60.126,166.500 60.247,166.500 60.337 C 166.500 60.426,166.385 60.500,166.245 60.500 C 166.104 60.500,165.946 60.612,165.894 60.750 C 165.841 60.887,165.698 61.000,165.576 61.000 C 165.289 61.000,162.500 63.792,162.500 64.079 C 162.500 64.199,162.387 64.341,162.250 64.394 C 162.112 64.446,162.000 64.604,162.000 64.745 C 162.000 64.885,161.930 65.000,161.845 65.000 C 161.759 65.000,161.636 65.169,161.571 65.375 C 161.505 65.581,161.284 65.975,161.078 66.250 C 160.872 66.525,160.651 66.994,160.588 67.292 C 160.525 67.590,160.408 67.833,160.328 67.833 C 160.247 67.833,160.133 68.096,160.072 68.417 C 160.012 68.737,159.906 69.000,159.836 69.000 C 159.766 69.000,159.659 69.315,159.597 69.700 C 159.536 70.085,159.421 70.479,159.343 70.575 C 159.184 70.771,159.016 71.799,159.006 72.635 C 159.003 72.938,158.933 73.145,158.850 73.094 C 158.460 72.852,158.426 82.075,158.817 82.327 C 158.893 82.376,159.009 82.922,159.074 83.540 C 159.139 84.158,159.253 84.701,159.327 84.746 C 159.401 84.792,159.512 85.168,159.574 85.581 C 159.636 85.995,159.748 86.333,159.822 86.333 C 159.896 86.333,159.999 86.597,160.051 86.918 C 160.104 87.240,160.263 87.620,160.406 87.764 C 160.550 87.907,160.667 88.168,160.667 88.345 C 160.667 88.522,160.742 88.667,160.833 88.667 C 160.925 88.667,161.000 88.782,161.000 88.922 C 161.000 89.062,161.112 89.220,161.250 89.273 C 161.387 89.326,161.500 89.468,161.500 89.589 C 161.500 89.710,161.631 89.941,161.792 90.101 C 161.952 90.262,162.083 90.445,162.083 90.509 C 162.083 90.715,164.866 93.333,165.086 93.333 C 165.202 93.333,165.341 93.446,165.394 93.583 C 165.446 93.721,165.604 93.833,165.745 93.833 C 165.885 93.833,166.000 93.900,166.000 93.982 C 166.000 94.064,166.205 94.182,166.457 94.245 C 166.708 94.308,166.952 94.410,166.998 94.472 C 167.164 94.689,168.198 95.167,168.504 95.167 C 168.674 95.167,168.863 95.247,168.924 95.345 C 168.984 95.443,169.139 95.482,169.267 95.433 C 169.395 95.384,169.500 95.400,169.500 95.470 C 169.500 95.539,169.739 95.614,170.031 95.636 C 170.322 95.658,170.645 95.746,170.747 95.831 C 170.951 96.000,171.093 96.009,174.333 96.043 C 176.849 96.069,177.638 96.015,177.766 95.808 C 177.814 95.730,178.074 95.667,178.343 95.667 C 178.613 95.667,178.833 95.594,178.833 95.505 C 178.833 95.416,178.950 95.389,179.093 95.443 C 179.235 95.498,179.667 95.390,180.051 95.204 C 180.929 94.777,181.382 94.606,181.542 94.640 C 181.610 94.655,181.667 94.592,181.667 94.500 C 181.667 94.408,181.782 94.333,181.922 94.333 C 182.062 94.333,182.218 94.228,182.267 94.098 C 182.317 93.969,182.540 93.818,182.762 93.762 C 182.985 93.706,183.167 93.587,183.167 93.497 C 183.167 93.407,183.252 93.333,183.357 93.333 C 183.461 93.333,184.100 92.771,184.777 92.083 C 185.453 91.396,186.043 90.833,186.087 90.833 C 186.131 90.833,186.167 91.846,186.167 93.083 L 186.167 95.333 190.320 95.333 C 192.604 95.333,194.591 95.288,194.736 95.232 C 195.141 95.077,195.141 41.423,194.736 41.268 C 194.591 41.212,192.604 41.167,190.320 41.167 L 186.167 41.167 186.167 51.583 M243.042 41.277 C 242.687 41.420,242.742 95.096,243.097 95.232 C 243.242 95.288,245.229 95.333,247.514 95.333 L 251.667 95.333 251.667 68.250 L 251.667 41.167 247.458 41.180 C 245.144 41.187,243.156 41.231,243.042 41.277 M264.458 41.784 C 264.023 41.821,263.667 41.914,263.667 41.991 C 263.667 42.067,263.404 42.179,263.083 42.239 C 262.762 42.299,262.500 42.419,262.500 42.504 C 262.500 42.590,262.313 42.707,262.083 42.765 C 261.854 42.822,261.667 42.925,261.667 42.993 C 261.667 43.060,261.518 43.296,261.336 43.516 C 260.818 44.145,260.767 44.224,260.477 44.838 C 259.999 45.849,259.753 47.275,259.973 47.758 C 260.080 47.991,260.167 48.408,260.167 48.684 C 260.167 48.960,260.233 49.146,260.313 49.096 C 260.394 49.046,260.502 49.210,260.553 49.461 C 260.734 50.341,262.824 52.167,263.651 52.167 C 263.843 52.167,264.000 52.229,264.000 52.304 C 264.000 52.479,266.750 52.415,267.417 52.226 C 268.385 51.950,269.882 50.801,270.078 50.183 C 270.139 49.991,270.256 49.833,270.337 49.833 C 270.418 49.833,270.534 49.571,270.594 49.250 C 270.655 48.929,270.770 48.667,270.852 48.667 C 270.933 48.667,271.000 47.992,271.000 47.167 C 271.000 46.342,270.935 45.667,270.855 45.667 C 270.775 45.667,270.661 45.367,270.603 45.000 C 270.544 44.633,270.422 44.333,270.331 44.333 C 270.241 44.333,270.167 44.250,270.167 44.147 C 270.167 43.916,268.934 42.667,268.707 42.667 C 268.615 42.667,268.447 42.554,268.333 42.417 C 268.219 42.279,267.943 42.167,267.720 42.167 C 267.491 42.167,267.359 42.094,267.417 42.000 C 267.479 41.900,267.259 41.833,266.864 41.833 C 266.503 41.833,265.993 41.807,265.729 41.774 C 265.466 41.742,264.894 41.746,264.458 41.784 M132.833 57.817 C 132.833 57.891,132.105 58.002,131.215 58.065 C 130.324 58.127,129.555 58.240,129.506 58.316 C 129.457 58.392,129.060 58.506,128.625 58.570 C 128.190 58.635,127.833 58.748,127.833 58.822 C 127.833 58.897,127.533 59.005,127.167 59.064 C 126.800 59.123,126.500 59.239,126.500 59.322 C 126.500 59.405,126.256 59.525,125.958 59.588 C 125.660 59.651,125.192 59.864,124.917 60.060 C 124.642 60.256,124.127 60.564,123.772 60.745 C 123.418 60.926,123.091 61.169,123.046 61.287 C 123.001 61.404,122.869 61.500,122.752 61.500 C 122.636 61.500,122.243 61.781,121.879 62.125 C 121.515 62.469,121.075 62.877,120.900 63.032 C 120.726 63.186,120.358 63.585,120.083 63.917 C 119.808 64.249,119.490 64.623,119.375 64.748 C 119.260 64.874,119.167 65.040,119.167 65.118 C 119.167 65.196,119.017 65.388,118.833 65.545 C 118.650 65.702,118.500 65.943,118.500 66.082 C 118.500 66.220,118.425 66.333,118.333 66.333 C 118.242 66.333,118.167 66.442,118.167 66.575 C 118.167 66.708,118.047 66.883,117.902 66.965 C 117.756 67.047,117.641 67.144,117.647 67.182 C 117.677 67.385,117.443 68.000,117.335 68.000 C 117.266 68.000,117.161 68.300,117.103 68.667 C 117.044 69.033,116.927 69.333,116.842 69.333 C 116.757 69.333,116.636 69.671,116.575 70.083 C 116.513 70.496,116.403 70.833,116.331 70.833 C 116.259 70.833,116.146 71.302,116.081 71.875 C 116.016 72.448,115.877 73.022,115.773 73.151 C 115.513 73.472,115.506 81.295,115.766 81.464 C 115.916 81.562,116.134 82.632,116.207 83.625 C 116.215 83.740,116.276 83.833,116.342 83.833 C 116.408 83.833,116.513 84.171,116.575 84.583 C 116.636 84.996,116.754 85.333,116.836 85.333 C 116.918 85.333,117.034 85.596,117.094 85.917 C 117.155 86.237,117.270 86.500,117.352 86.500 C 117.433 86.500,117.500 86.607,117.500 86.738 C 117.500 86.869,117.603 87.079,117.728 87.204 C 117.853 87.330,118.014 87.616,118.084 87.841 C 118.154 88.066,118.261 88.287,118.322 88.333 C 118.383 88.379,118.596 88.650,118.795 88.936 C 119.806 90.385,121.985 92.534,122.661 92.748 C 122.830 92.802,123.011 92.956,123.063 93.090 C 123.114 93.224,123.271 93.333,123.411 93.333 C 123.552 93.333,123.667 93.402,123.667 93.487 C 123.667 93.571,123.892 93.690,124.167 93.750 C 124.442 93.810,124.667 93.923,124.667 94.000 C 124.667 94.077,124.892 94.190,125.167 94.250 C 125.442 94.310,125.667 94.429,125.667 94.513 C 125.667 94.598,125.787 94.667,125.933 94.667 C 126.080 94.667,126.436 94.772,126.725 94.901 C 127.269 95.144,128.104 95.391,128.447 95.410 C 128.555 95.416,128.698 95.476,128.766 95.544 C 128.834 95.611,129.176 95.667,129.528 95.667 C 129.879 95.667,130.167 95.737,130.167 95.822 C 130.167 96.166,137.595 96.133,138.500 95.786 C 138.637 95.733,139.162 95.617,139.667 95.528 C 140.653 95.353,142.696 94.678,142.835 94.480 C 142.882 94.414,143.126 94.308,143.377 94.245 C 143.628 94.182,143.833 94.070,143.833 93.995 C 143.833 93.921,144.058 93.810,144.333 93.750 C 144.608 93.690,144.833 93.573,144.833 93.490 C 144.833 93.407,145.021 93.293,145.250 93.235 C 145.479 93.178,145.667 93.061,145.667 92.977 C 145.667 92.892,145.798 92.774,145.958 92.715 C 146.119 92.655,146.515 92.339,146.839 92.012 C 147.162 91.684,147.701 91.232,148.034 91.005 C 148.368 90.779,148.610 90.544,148.572 90.482 C 148.534 90.420,148.802 90.070,149.168 89.704 C 149.534 89.339,149.833 88.955,149.833 88.853 C 149.833 88.750,149.896 88.667,149.973 88.667 C 150.050 88.667,150.201 88.498,150.308 88.292 C 150.416 88.085,150.654 87.692,150.837 87.417 C 151.020 87.142,151.216 86.785,151.271 86.625 C 151.327 86.465,151.438 86.333,151.519 86.333 C 151.600 86.333,151.667 86.258,151.667 86.166 C 151.667 86.074,151.849 85.621,152.072 85.159 C 152.294 84.697,152.528 84.079,152.591 83.785 C 152.654 83.491,152.750 83.176,152.803 83.086 C 152.857 82.996,152.918 82.809,152.940 82.670 C 153.166 81.210,153.242 80.900,153.400 80.798 C 153.656 80.632,153.656 72.535,153.400 72.369 C 153.300 72.304,153.170 71.838,153.112 71.334 C 153.054 70.831,152.930 70.393,152.836 70.362 C 152.743 70.331,152.667 70.124,152.667 69.903 C 152.667 69.681,152.587 69.500,152.489 69.500 C 152.387 69.500,152.356 69.358,152.417 69.167 C 152.477 68.975,152.447 68.833,152.345 68.833 C 152.247 68.833,152.167 68.689,152.167 68.514 C 152.167 68.200,151.692 67.167,151.472 66.998 C 151.410 66.952,151.310 66.713,151.248 66.469 C 151.187 66.224,151.031 65.984,150.902 65.934 C 150.772 65.884,150.667 65.729,150.667 65.589 C 150.667 65.448,150.597 65.333,150.511 65.333 C 150.426 65.333,150.302 65.165,150.237 64.958 C 150.172 64.752,149.829 64.311,149.476 63.978 C 149.122 63.645,148.833 63.295,148.833 63.200 C 148.833 63.105,148.517 62.778,148.131 62.472 C 147.744 62.167,147.227 61.729,146.981 61.500 C 146.278 60.845,145.784 60.500,145.549 60.500 C 145.431 60.500,145.333 60.425,145.333 60.333 C 145.333 60.242,145.230 60.167,145.104 60.167 C 144.977 60.167,144.782 60.056,144.670 59.921 C 144.558 59.786,144.212 59.628,143.900 59.569 C 143.588 59.511,143.333 59.400,143.333 59.322 C 143.333 59.245,143.071 59.133,142.750 59.072 C 142.429 59.012,142.167 58.903,142.167 58.830 C 142.167 58.758,141.773 58.644,141.292 58.579 C 140.810 58.513,140.379 58.402,140.333 58.330 C 140.118 57.996,132.833 57.498,132.833 57.817 M217.667 57.826 C 217.667 57.895,217.114 57.994,216.438 58.045 C 215.761 58.096,215.068 58.215,214.896 58.310 C 214.724 58.404,214.302 58.527,213.958 58.582 C 213.615 58.637,213.333 58.745,213.333 58.822 C 213.333 58.900,213.071 59.012,212.750 59.072 C 212.429 59.133,212.167 59.253,212.167 59.341 C 212.167 59.428,212.081 59.500,211.977 59.500 C 211.683 59.500,210.333 60.209,210.333 60.363 C 210.333 60.438,210.224 60.500,210.090 60.500 C 209.956 60.500,209.656 60.705,209.423 60.957 C 209.191 61.208,209.000 61.357,209.000 61.288 C 209.000 61.218,208.400 61.760,207.667 62.490 C 206.933 63.220,206.333 63.901,206.333 64.002 C 206.333 64.103,206.258 64.140,206.167 64.083 C 206.075 64.027,206.000 64.063,206.000 64.164 C 206.000 64.330,205.386 65.300,205.153 65.500 C 205.100 65.546,204.875 65.958,204.653 66.417 C 204.432 66.875,204.200 67.288,204.138 67.335 C 204.077 67.382,203.975 67.626,203.912 67.877 C 203.849 68.128,203.735 68.333,203.659 68.333 C 203.583 68.333,203.470 68.671,203.408 69.083 C 203.346 69.496,203.234 69.833,203.158 69.833 C 203.082 69.833,202.968 70.190,202.904 70.625 C 202.840 71.060,202.725 71.457,202.649 71.506 C 202.574 71.555,202.460 72.327,202.398 73.220 C 202.335 74.114,202.220 74.884,202.142 74.932 C 202.064 74.980,202.000 76.145,202.000 77.520 C 202.000 78.895,202.064 79.980,202.142 79.932 C 202.220 79.884,202.331 80.564,202.389 81.443 C 202.447 82.322,202.562 83.126,202.645 83.229 C 202.728 83.332,202.849 83.810,202.914 84.292 C 202.978 84.773,203.091 85.167,203.164 85.167 C 203.237 85.167,203.345 85.429,203.406 85.750 C 203.466 86.071,203.587 86.333,203.674 86.333 C 203.762 86.333,203.833 86.511,203.833 86.728 C 203.833 86.944,203.983 87.312,204.167 87.545 C 204.350 87.779,204.500 88.051,204.500 88.151 C 204.500 88.251,204.567 88.333,204.649 88.333 C 204.730 88.333,204.844 88.521,204.902 88.750 C 204.959 88.979,205.080 89.167,205.170 89.167 C 205.260 89.167,205.333 89.275,205.333 89.408 C 205.333 89.541,205.433 89.710,205.554 89.783 C 205.675 89.857,205.957 90.175,206.179 90.491 C 206.644 91.151,207.340 91.817,207.583 91.835 C 207.675 91.842,207.934 92.069,208.159 92.340 C 208.384 92.612,208.665 92.833,208.784 92.833 C 208.903 92.833,209.000 92.907,209.000 92.997 C 209.000 93.087,209.182 93.206,209.405 93.262 C 209.627 93.318,209.850 93.469,209.899 93.598 C 209.949 93.728,210.104 93.833,210.245 93.833 C 210.385 93.833,210.500 93.905,210.500 93.992 C 210.500 94.080,210.762 94.201,211.083 94.261 C 211.404 94.321,211.667 94.437,211.667 94.519 C 211.667 94.600,211.802 94.667,211.968 94.667 C 212.134 94.667,212.415 94.777,212.593 94.911 C 212.771 95.046,213.081 95.158,213.282 95.161 C 213.483 95.164,213.698 95.249,213.760 95.349 C 213.822 95.449,214.051 95.497,214.270 95.455 C 214.488 95.414,214.667 95.444,214.667 95.523 C 214.667 95.602,214.925 95.667,215.240 95.667 C 215.556 95.667,215.852 95.729,215.899 95.805 C 216.131 96.181,223.224 96.165,223.602 95.787 C 223.668 95.721,224.035 95.667,224.417 95.667 C 224.799 95.667,225.163 95.614,225.227 95.551 C 225.291 95.487,225.435 95.419,225.546 95.401 C 226.039 95.318,227.461 94.772,227.936 94.483 C 228.222 94.309,228.546 94.167,228.657 94.167 C 228.767 94.167,228.962 94.073,229.089 93.958 C 229.614 93.488,229.793 93.369,230.138 93.259 C 230.337 93.196,230.500 93.074,230.500 92.989 C 230.500 92.903,230.609 92.833,230.742 92.833 C 230.875 92.833,231.043 92.733,231.117 92.610 C 231.190 92.488,231.374 92.319,231.526 92.235 C 231.973 91.989,233.384 90.613,233.826 89.991 C 234.247 89.400,234.276 89.362,234.836 88.683 C 235.018 88.463,235.167 88.181,235.167 88.058 C 235.167 87.934,235.242 87.833,235.333 87.833 C 235.687 87.833,235.478 87.334,235.083 87.235 C 234.854 87.178,234.667 87.070,234.667 86.995 C 234.667 86.921,234.442 86.810,234.167 86.750 C 233.892 86.690,233.667 86.579,233.667 86.505 C 233.667 86.430,233.476 86.322,233.243 86.263 C 233.010 86.205,232.865 86.084,232.920 85.995 C 232.975 85.906,232.871 85.833,232.688 85.833 C 232.506 85.833,232.248 85.725,232.115 85.592 C 231.982 85.459,231.677 85.300,231.437 85.240 C 231.197 85.180,231.000 85.072,231.000 85.000 C 231.000 84.928,230.813 84.822,230.583 84.765 C 230.354 84.707,230.167 84.593,230.167 84.510 C 230.167 84.427,229.942 84.310,229.667 84.250 C 229.392 84.190,229.167 84.071,229.167 83.987 C 229.167 83.643,228.665 83.863,228.568 84.250 C 228.511 84.479,228.395 84.667,228.310 84.667 C 228.225 84.667,228.107 84.798,228.046 84.958 C 227.903 85.338,225.671 87.570,225.292 87.713 C 225.131 87.773,225.000 87.894,225.000 87.982 C 225.000 88.069,224.770 88.191,224.489 88.252 C 224.208 88.314,223.776 88.470,223.530 88.598 C 223.285 88.726,222.882 88.832,222.635 88.832 C 222.388 88.833,222.140 88.908,222.083 89.000 C 221.955 89.207,218.167 89.225,218.167 89.019 C 218.167 88.938,217.829 88.821,217.417 88.759 C 217.004 88.697,216.667 88.576,216.667 88.490 C 216.667 88.404,216.610 88.341,216.542 88.351 C 216.306 88.385,215.667 88.128,215.667 87.999 C 215.667 87.928,215.479 87.822,215.250 87.765 C 215.021 87.707,214.833 87.587,214.833 87.497 C 214.833 87.407,214.743 87.333,214.633 87.333 C 214.367 87.333,212.333 85.170,212.333 84.887 C 212.333 84.766,212.264 84.667,212.180 84.667 C 212.096 84.667,211.977 84.442,211.917 84.167 C 211.856 83.892,211.745 83.667,211.669 83.667 C 211.593 83.667,211.478 83.273,211.412 82.792 C 211.347 82.310,211.238 81.879,211.172 81.833 C 211.105 81.787,211.001 81.206,210.941 80.542 L 210.831 79.333 223.268 79.333 L 235.706 79.333 235.640 74.908 C 235.595 71.883,235.515 70.446,235.387 70.366 C 235.285 70.302,235.147 69.819,235.081 69.292 C 235.015 68.765,234.904 68.333,234.833 68.333 C 234.762 68.333,234.654 67.996,234.592 67.583 C 234.530 67.171,234.409 66.833,234.323 66.833 C 234.237 66.833,234.166 66.740,234.166 66.625 C 234.165 66.510,234.064 66.224,233.941 65.989 C 233.819 65.754,233.668 65.360,233.606 65.114 C 233.544 64.868,233.420 64.667,233.330 64.667 C 233.240 64.667,233.167 64.552,233.167 64.411 C 233.167 64.271,233.054 64.113,232.917 64.060 C 232.779 64.008,232.667 63.859,232.667 63.731 C 232.667 63.602,232.517 63.368,232.333 63.211 C 232.150 63.054,232.000 62.867,232.000 62.795 C 232.000 62.608,230.512 61.167,230.318 61.167 C 230.229 61.167,230.114 61.057,230.063 60.923 C 230.011 60.789,229.813 60.630,229.622 60.569 C 229.432 60.509,229.195 60.392,229.096 60.310 C 228.997 60.228,228.736 60.012,228.516 59.830 C 228.296 59.649,227.977 59.500,227.808 59.500 C 227.639 59.500,227.500 59.443,227.500 59.374 C 227.500 59.244,226.866 58.996,225.417 58.557 C 223.930 58.107,223.430 58.008,222.625 58.004 C 222.190 58.002,221.833 57.922,221.833 57.827 C 221.833 57.715,221.095 57.662,219.750 57.677 C 218.604 57.690,217.667 57.757,217.667 57.826 M297.809 57.852 C 297.685 57.930,297.311 57.996,296.977 57.997 C 296.337 58.000,294.919 58.373,294.083 58.758 C 293.808 58.885,293.377 59.037,293.125 59.096 C 292.873 59.155,292.667 59.264,292.667 59.338 C 292.667 59.413,292.442 59.523,292.167 59.583 C 291.892 59.644,291.667 59.757,291.667 59.835 C 291.667 59.914,291.505 60.029,291.307 60.092 C 291.110 60.154,290.782 60.384,290.580 60.603 C 290.377 60.821,290.171 61.000,290.122 61.000 C 289.964 61.000,288.393 62.573,288.291 62.833 C 288.237 62.971,288.187 62.098,288.180 60.893 C 288.169 59.057,288.124 58.686,287.903 58.601 C 287.559 58.469,279.941 58.469,279.597 58.601 C 279.359 58.693,279.333 60.463,279.333 76.937 L 279.333 95.172 283.708 95.128 L 288.083 95.083 288.167 83.347 C 288.232 74.166,288.295 71.596,288.458 71.542 C 288.573 71.503,288.667 71.279,288.667 71.043 C 288.667 70.520,289.830 68.145,290.026 68.266 C 290.104 68.314,290.167 68.247,290.167 68.118 C 290.167 67.842,290.908 67.000,291.150 67.000 C 291.242 67.000,291.377 66.900,291.450 66.779 C 291.523 66.657,291.827 66.416,292.125 66.243 C 292.423 66.070,292.667 65.875,292.667 65.811 C 292.667 65.746,292.910 65.640,293.208 65.576 C 293.506 65.511,293.804 65.374,293.869 65.271 C 294.038 65.004,298.968 65.012,299.133 65.278 C 299.199 65.386,299.459 65.525,299.710 65.588 C 299.961 65.651,300.167 65.770,300.167 65.851 C 300.167 65.933,300.274 66.000,300.405 66.000 C 300.535 66.000,300.788 66.185,300.966 66.411 C 301.144 66.637,301.330 66.781,301.379 66.732 C 301.429 66.682,301.524 66.812,301.590 67.021 C 301.656 67.230,301.813 67.504,301.939 67.629 C 302.064 67.755,302.167 67.964,302.167 68.095 C 302.167 68.226,302.238 68.333,302.326 68.333 C 302.413 68.333,302.534 68.596,302.594 68.917 C 302.655 69.237,302.760 69.500,302.828 69.500 C 303.267 69.500,303.388 72.267,303.446 83.544 L 303.504 95.172 307.877 95.128 L 312.250 95.083 312.229 83.833 C 312.208 73.177,312.029 67.730,311.692 67.511 C 311.612 67.459,311.494 67.060,311.430 66.625 C 311.365 66.190,311.252 65.833,311.178 65.833 C 311.103 65.833,310.995 65.533,310.936 65.167 C 310.877 64.800,310.755 64.500,310.665 64.500 C 310.574 64.500,310.500 64.380,310.500 64.234 C 310.500 63.919,309.478 62.167,309.294 62.167 C 309.224 62.167,309.167 62.078,309.167 61.970 C 309.167 61.669,307.028 59.680,306.583 59.568 C 306.367 59.514,306.150 59.364,306.101 59.235 C 306.051 59.106,305.821 59.000,305.589 59.000 C 305.357 59.000,305.167 58.931,305.167 58.847 C 305.167 58.762,304.923 58.641,304.625 58.577 C 304.327 58.514,304.001 58.395,303.900 58.314 C 303.799 58.233,303.236 58.119,302.650 58.060 C 302.063 58.002,301.496 57.886,301.389 57.802 C 301.149 57.613,298.119 57.655,297.809 57.852 M334.167 57.801 C 334.167 57.884,333.590 58.000,332.884 58.059 C 332.179 58.119,331.561 58.231,331.509 58.308 C 331.458 58.386,331.046 58.498,330.592 58.559 C 330.139 58.620,329.726 58.738,329.674 58.821 C 329.622 58.905,329.374 59.025,329.123 59.088 C 328.872 59.151,328.667 59.264,328.667 59.338 C 328.667 59.413,328.442 59.523,328.167 59.583 C 327.892 59.644,327.667 59.754,327.667 59.829 C 327.667 59.903,327.479 60.011,327.250 60.068 C 327.021 60.126,326.833 60.247,326.833 60.337 C 326.833 60.426,326.718 60.500,326.578 60.500 C 326.438 60.500,326.280 60.612,326.227 60.750 C 326.174 60.887,326.032 61.000,325.910 61.000 C 325.615 61.000,322.333 64.312,322.333 64.610 C 322.333 64.738,322.221 64.887,322.083 64.940 C 321.946 64.992,321.833 65.135,321.833 65.256 C 321.833 65.377,321.739 65.575,321.624 65.696 C 321.509 65.818,321.265 66.235,321.082 66.623 C 320.899 67.012,320.697 67.330,320.633 67.331 C 320.568 67.332,320.466 67.596,320.406 67.917 C 320.345 68.237,320.233 68.500,320.156 68.500 C 320.078 68.500,319.964 68.781,319.902 69.125 C 319.841 69.469,319.732 69.825,319.661 69.917 C 319.589 70.008,319.476 70.458,319.409 70.917 C 319.342 71.375,319.221 71.793,319.141 71.845 C 319.061 71.897,318.948 72.684,318.891 73.595 C 318.834 74.505,318.725 75.330,318.648 75.428 C 318.479 75.645,318.496 80.333,318.666 80.333 C 318.732 80.333,318.839 81.101,318.903 82.038 C 318.968 82.976,319.081 83.782,319.154 83.830 C 319.227 83.878,319.329 84.142,319.381 84.417 C 319.512 85.117,320.049 86.900,320.159 87.000 C 320.362 87.186,320.833 88.151,320.833 88.383 C 320.833 88.519,320.946 88.674,321.083 88.727 C 321.221 88.780,321.333 88.938,321.333 89.078 C 321.333 89.218,321.408 89.333,321.500 89.333 C 321.592 89.333,321.667 89.430,321.667 89.547 C 321.667 89.891,324.599 93.167,324.906 93.167 C 325.021 93.167,326.027 93.847,326.167 94.019 C 326.212 94.076,326.438 94.179,326.667 94.250 C 326.896 94.321,327.121 94.424,327.167 94.481 C 327.335 94.688,328.369 95.167,328.647 95.167 C 328.804 95.167,329.006 95.239,329.095 95.328 C 329.184 95.417,329.555 95.533,329.920 95.586 C 330.285 95.639,330.696 95.729,330.833 95.786 C 331.725 96.152,337.732 96.157,338.097 95.792 C 338.166 95.723,338.472 95.667,338.778 95.667 C 339.083 95.667,339.333 95.587,339.333 95.490 C 339.333 95.393,339.415 95.364,339.516 95.426 C 339.616 95.489,339.860 95.464,340.058 95.372 C 342.128 94.408,342.667 94.123,342.667 93.990 C 342.667 93.904,342.780 93.833,342.918 93.833 C 343.057 93.833,343.298 93.683,343.455 93.500 C 343.612 93.317,343.805 93.167,343.884 93.167 C 344.092 93.167,346.000 91.226,346.000 91.013 C 346.000 90.914,346.075 90.833,346.167 90.833 C 346.271 90.833,346.333 91.889,346.333 93.667 C 346.333 95.225,346.269 96.500,346.191 96.500 C 346.112 96.500,345.998 97.044,345.936 97.708 C 345.875 98.373,345.751 98.942,345.662 98.972 C 345.573 99.003,345.500 99.138,345.500 99.273 C 345.500 99.567,344.510 101.393,344.308 101.472 C 344.230 101.503,344.167 101.612,344.167 101.715 C 344.167 102.044,341.976 103.979,341.480 104.088 C 341.216 104.146,341.000 104.256,341.000 104.333 C 341.000 104.471,340.038 104.761,339.792 104.698 C 339.723 104.681,339.667 104.734,339.667 104.817 C 339.667 104.971,338.120 105.200,337.081 105.200 C 336.761 105.200,336.500 105.267,336.500 105.350 C 336.500 105.433,336.275 105.500,336.000 105.500 C 335.725 105.500,335.500 105.438,335.500 105.363 C 335.500 105.287,335.160 105.220,334.745 105.214 C 333.461 105.194,330.833 104.590,330.833 104.315 C 330.833 104.248,330.608 104.144,330.333 104.083 C 330.058 104.023,329.833 103.904,329.833 103.820 C 329.833 103.736,329.765 103.667,329.682 103.667 C 329.451 103.667,328.167 102.794,328.167 102.637 C 328.167 102.562,328.091 102.500,327.998 102.500 C 327.782 102.500,326.333 101.141,326.333 100.938 C 326.333 100.728,325.227 99.667,325.008 99.667 C 324.912 99.667,324.833 99.744,324.833 99.839 C 324.833 99.933,324.702 100.059,324.542 100.118 C 324.381 100.177,324.093 100.391,323.901 100.593 C 323.709 100.795,323.397 101.010,323.208 101.070 C 323.019 101.130,322.822 101.289,322.771 101.423 C 322.719 101.557,322.562 101.667,322.422 101.667 C 322.282 101.667,322.167 101.724,322.167 101.794 C 322.167 101.864,321.867 102.107,321.500 102.333 C 321.133 102.560,320.833 102.803,320.833 102.873 C 320.833 102.943,320.759 103.000,320.668 103.000 C 320.371 103.000,319.085 104.088,319.034 104.381 C 319.007 104.538,319.064 104.667,319.159 104.667 C 319.255 104.667,319.333 104.773,319.333 104.904 C 319.333 105.034,319.670 105.465,320.082 105.862 C 322.012 107.723,322.319 108.000,322.451 108.000 C 322.529 108.000,322.721 108.150,322.878 108.333 C 323.035 108.517,323.269 108.667,323.397 108.667 C 323.526 108.667,323.674 108.779,323.727 108.917 C 323.780 109.054,323.938 109.167,324.078 109.167 C 324.218 109.167,324.333 109.224,324.333 109.294 C 324.333 109.425,324.424 109.479,325.779 110.146 C 326.222 110.363,326.782 110.645,327.026 110.771 C 327.269 110.897,327.619 111.000,327.803 111.000 C 327.988 111.000,328.164 111.071,328.194 111.159 C 328.225 111.246,328.662 111.390,329.167 111.480 C 329.671 111.569,330.383 111.721,330.750 111.817 C 331.117 111.913,331.693 111.994,332.032 111.996 C 332.370 111.998,332.690 112.069,332.742 112.154 C 332.864 112.351,339.167 112.393,339.167 112.197 C 339.167 112.116,339.819 111.999,340.617 111.938 C 341.415 111.876,342.109 111.762,342.159 111.683 C 342.209 111.605,342.569 111.488,342.958 111.422 C 343.348 111.357,343.667 111.252,343.667 111.187 C 343.667 111.123,343.829 111.059,344.027 111.044 C 344.225 111.029,344.441 110.928,344.508 110.820 C 344.575 110.712,344.713 110.675,344.815 110.738 C 344.917 110.801,345.000 110.774,345.000 110.677 C 345.000 110.579,345.145 110.500,345.321 110.500 C 345.498 110.500,345.743 110.406,345.866 110.292 C 345.988 110.177,346.387 109.934,346.753 109.752 C 347.118 109.569,347.454 109.375,347.500 109.321 C 347.546 109.266,347.708 109.153,347.860 109.069 C 348.013 108.985,348.441 108.635,348.811 108.292 C 349.182 107.948,349.545 107.665,349.618 107.664 C 349.778 107.660,350.500 106.916,350.500 106.755 C 350.500 106.692,350.725 106.416,351.000 106.141 C 351.275 105.866,351.500 105.542,351.500 105.422 C 351.500 105.301,351.613 105.159,351.750 105.106 C 351.887 105.054,352.000 104.896,352.000 104.755 C 352.000 104.615,352.061 104.500,352.135 104.500 C 352.209 104.500,352.453 104.088,352.676 103.585 C 352.900 103.082,353.131 102.669,353.190 102.668 C 353.248 102.667,353.345 102.404,353.406 102.083 C 353.466 101.763,353.581 101.500,353.662 101.500 C 353.743 101.500,353.861 101.087,353.924 100.583 C 353.987 100.079,354.099 99.667,354.173 99.667 C 354.246 99.667,354.360 99.160,354.426 98.542 C 354.491 97.923,354.628 97.363,354.730 97.298 C 354.866 97.211,354.917 91.914,354.917 77.881 L 354.917 58.583 350.667 58.583 L 346.417 58.583 346.369 60.292 C 346.343 61.245,346.251 62.000,346.161 62.000 C 346.072 62.000,346.000 61.925,346.000 61.833 C 346.000 61.552,344.189 60.000,343.861 60.000 C 343.774 60.000,343.659 59.887,343.606 59.750 C 343.554 59.612,343.396 59.500,343.255 59.500 C 343.115 59.500,343.000 59.425,343.000 59.333 C 343.000 59.242,342.869 59.164,342.708 59.161 C 342.548 59.158,342.117 59.010,341.750 58.833 C 341.383 58.656,340.952 58.509,340.792 58.506 C 340.631 58.503,340.500 58.430,340.500 58.345 C 340.500 58.259,339.901 58.137,339.170 58.074 C 338.438 58.010,337.875 57.901,337.918 57.831 C 337.961 57.761,337.135 57.692,336.082 57.678 C 335.028 57.663,334.167 57.719,334.167 57.801 M379.576 57.821 C 379.620 57.892,378.932 57.998,378.047 58.056 C 377.162 58.114,376.362 58.238,376.269 58.331 C 376.176 58.424,375.909 58.500,375.675 58.501 C 375.441 58.502,375.041 58.611,374.785 58.745 C 374.529 58.878,374.060 59.036,373.743 59.096 C 373.426 59.155,373.167 59.262,373.167 59.333 C 373.167 59.405,372.904 59.512,372.583 59.572 C 372.262 59.633,372.000 59.745,372.000 59.823 C 372.000 59.900,371.813 60.011,371.583 60.068 C 371.354 60.126,371.167 60.247,371.167 60.337 C 371.167 60.426,371.052 60.500,370.911 60.500 C 370.771 60.500,370.613 60.612,370.561 60.749 C 370.508 60.886,370.409 60.964,370.341 60.921 C 370.273 60.879,370.059 60.992,369.866 61.172 C 369.672 61.353,369.453 61.500,369.377 61.500 C 369.302 61.500,369.055 61.710,368.829 61.967 C 368.602 62.224,368.173 62.578,367.875 62.753 C 367.577 62.929,367.288 63.213,367.233 63.385 C 367.179 63.558,366.841 63.983,366.484 64.330 C 366.126 64.677,365.833 65.033,365.833 65.121 C 365.833 65.210,365.683 65.417,365.500 65.583 C 365.317 65.749,365.167 65.986,365.167 66.109 C 365.167 66.232,365.100 66.333,365.018 66.333 C 364.936 66.333,364.822 66.524,364.763 66.757 C 364.705 66.990,364.590 67.139,364.509 67.089 C 364.427 67.038,364.311 67.223,364.250 67.499 C 364.190 67.774,364.081 68.000,364.008 68.000 C 363.935 68.000,363.828 68.300,363.769 68.667 C 363.711 69.033,363.593 69.333,363.508 69.333 C 363.423 69.333,363.303 69.671,363.241 70.083 C 363.179 70.496,363.067 70.833,362.991 70.833 C 362.915 70.833,362.802 71.357,362.739 71.997 C 362.676 72.637,362.566 73.124,362.496 73.081 C 362.123 72.850,362.121 81.110,362.494 81.583 C 362.566 81.675,362.678 82.180,362.741 82.706 C 362.805 83.231,362.926 83.705,363.012 83.757 C 363.097 83.810,363.169 84.017,363.172 84.218 C 363.175 84.419,363.323 84.883,363.500 85.250 C 363.677 85.617,363.825 86.010,363.828 86.125 C 363.831 86.240,363.908 86.333,364.000 86.333 C 364.092 86.333,364.167 86.478,364.167 86.655 C 364.167 86.832,364.260 87.076,364.375 87.199 C 364.490 87.322,364.733 87.714,364.916 88.072 C 365.099 88.430,365.568 89.077,365.958 89.511 C 366.348 89.944,366.667 90.343,366.667 90.396 C 366.667 90.569,367.800 91.667,367.978 91.667 C 368.073 91.667,368.210 91.766,368.283 91.887 C 368.357 92.009,368.677 92.290,368.996 92.512 C 369.314 92.735,369.675 93.010,369.799 93.125 C 369.923 93.240,370.131 93.333,370.262 93.333 C 370.393 93.333,370.500 93.402,370.500 93.487 C 370.500 93.571,370.725 93.690,371.000 93.750 C 371.275 93.810,371.500 93.923,371.500 94.000 C 371.500 94.077,371.725 94.190,372.000 94.250 C 372.275 94.310,372.500 94.429,372.500 94.513 C 372.500 94.598,372.582 94.667,372.683 94.667 C 372.784 94.667,373.103 94.772,373.391 94.901 C 373.936 95.144,374.771 95.391,375.113 95.410 C 375.221 95.416,375.365 95.476,375.433 95.544 C 375.500 95.611,375.801 95.667,376.101 95.667 C 376.401 95.667,376.694 95.743,376.752 95.836 C 376.881 96.045,377.541 96.074,381.725 96.051 C 383.889 96.040,385.096 95.970,385.216 95.850 C 385.317 95.749,385.612 95.667,385.871 95.667 C 386.130 95.667,386.747 95.524,387.243 95.350 C 387.739 95.176,388.187 95.076,388.239 95.128 C 388.291 95.180,388.333 95.143,388.333 95.046 C 388.333 94.950,388.596 94.821,388.917 94.761 C 389.238 94.701,389.500 94.586,389.500 94.506 C 389.500 94.425,389.725 94.310,390.000 94.250 C 390.275 94.190,390.500 94.077,390.500 94.000 C 390.500 93.923,390.725 93.810,391.000 93.750 C 391.275 93.690,391.500 93.573,391.500 93.490 C 391.500 93.407,391.688 93.293,391.917 93.235 C 392.146 93.178,392.333 93.061,392.333 92.977 C 392.333 92.892,392.465 92.773,392.625 92.711 C 392.785 92.649,393.213 92.314,393.575 91.966 C 393.937 91.618,394.283 91.333,394.343 91.333 C 394.402 91.333,394.654 91.146,394.901 90.917 C 395.148 90.688,395.294 90.500,395.226 90.500 C 395.157 90.500,395.453 90.158,395.884 89.739 C 396.314 89.320,396.667 88.919,396.667 88.848 C 396.667 88.776,396.815 88.537,396.997 88.317 C 397.519 87.684,397.560 87.620,398.000 86.745 C 398.229 86.289,398.473 85.892,398.542 85.861 C 398.610 85.831,398.667 85.630,398.667 85.415 C 398.667 85.200,398.779 84.911,398.917 84.774 C 399.054 84.636,399.167 84.416,399.167 84.284 C 399.167 84.152,399.328 83.565,399.525 82.980 C 400.154 81.115,400.154 70.759,399.525 70.343 C 399.448 70.292,399.338 69.956,399.282 69.597 C 399.225 69.238,399.112 68.900,399.030 68.847 C 398.948 68.794,398.830 68.469,398.766 68.125 C 398.703 67.781,398.586 67.500,398.506 67.500 C 398.425 67.500,398.310 67.275,398.250 67.000 C 398.190 66.725,398.071 66.500,397.987 66.500 C 397.902 66.500,397.833 66.385,397.833 66.245 C 397.833 66.104,397.721 65.946,397.583 65.894 C 397.446 65.841,397.333 65.709,397.333 65.602 C 397.333 65.396,396.995 64.931,395.958 63.714 C 395.615 63.310,395.333 62.909,395.333 62.823 C 395.333 62.737,395.258 62.667,395.167 62.667 C 395.075 62.667,394.869 62.551,394.708 62.410 C 394.548 62.268,394.147 61.912,393.817 61.618 C 393.103 60.981,392.686 60.691,392.292 60.559 C 392.131 60.505,392.000 60.403,392.000 60.332 C 392.000 60.261,391.809 60.155,391.577 60.097 C 391.320 60.032,391.199 59.916,391.269 59.803 C 391.337 59.693,391.310 59.661,391.204 59.727 C 391.104 59.788,390.976 59.763,390.918 59.669 C 390.861 59.576,390.631 59.500,390.407 59.500 C 390.183 59.500,390.000 59.428,390.000 59.341 C 390.000 59.253,389.737 59.132,389.415 59.072 C 389.093 59.012,388.791 58.900,388.744 58.824 C 388.697 58.748,388.304 58.634,387.871 58.570 C 387.438 58.506,387.045 58.395,386.998 58.323 C 386.783 57.993,379.372 57.492,379.576 57.821 M261.167 76.921 L 261.167 95.176 265.583 95.161 L 270.000 95.146 270.000 77.170 C 270.000 67.283,269.954 59.075,269.899 58.930 C 269.810 58.699,269.264 58.667,265.482 58.667 L 261.167 58.667 261.167 76.921 M222.478 64.792 C 222.536 64.883,222.827 65.011,223.125 65.076 C 223.423 65.140,223.667 65.257,223.667 65.335 C 223.667 65.414,223.810 65.523,223.985 65.579 C 224.596 65.773,226.500 68.025,226.500 68.554 C 226.500 68.667,226.609 68.915,226.743 69.106 C 226.877 69.297,227.037 69.953,227.100 70.564 C 227.162 71.176,227.278 71.716,227.357 71.765 C 227.436 71.813,227.500 72.074,227.500 72.343 L 227.500 72.833 219.165 72.833 L 210.829 72.833 210.940 72.125 C 211.001 71.735,211.105 71.379,211.172 71.333 C 211.238 71.287,211.346 70.931,211.411 70.541 C 211.476 70.151,211.592 69.870,211.668 69.917 C 211.744 69.964,211.856 69.777,211.916 69.501 C 211.977 69.226,212.077 69.000,212.139 69.000 C 212.201 69.000,212.350 68.779,212.469 68.510 C 212.750 67.876,214.971 65.684,215.458 65.559 C 215.665 65.507,215.833 65.403,215.833 65.329 C 215.833 65.254,216.077 65.141,216.375 65.077 C 216.673 65.014,216.992 64.903,217.083 64.832 C 217.537 64.480,222.256 64.445,222.478 64.792 M137.792 65.292 C 137.830 65.406,137.975 65.500,138.114 65.500 C 138.442 65.500,139.548 66.015,139.706 66.241 C 139.773 66.338,139.829 66.357,139.831 66.283 C 139.838 65.889,142.062 67.908,142.241 68.471 C 142.304 68.670,142.426 68.833,142.511 68.833 C 142.597 68.833,142.667 68.948,142.667 69.089 C 142.667 69.229,142.775 69.385,142.906 69.436 C 143.038 69.486,143.194 69.747,143.253 70.014 C 143.312 70.281,143.419 70.500,143.492 70.500 C 143.565 70.500,143.672 70.800,143.731 71.167 C 143.789 71.533,143.903 71.833,143.983 71.833 C 144.113 71.833,144.434 73.563,144.362 73.875 C 144.346 73.944,144.408 74.000,144.500 74.000 C 144.605 74.000,144.667 75.083,144.667 76.917 C 144.667 78.521,144.601 79.833,144.522 79.833 C 144.442 79.833,144.325 80.358,144.261 81.000 C 144.198 81.642,144.079 82.167,143.997 82.167 C 143.915 82.167,143.799 82.429,143.739 82.750 C 143.679 83.071,143.569 83.333,143.495 83.333 C 143.421 83.333,143.310 83.558,143.250 83.833 C 143.190 84.108,143.076 84.333,142.998 84.333 C 142.920 84.333,142.804 84.496,142.741 84.696 C 142.608 85.115,142.517 85.234,141.479 86.343 C 141.055 86.796,140.621 87.167,140.516 87.167 C 140.410 87.167,140.281 87.275,140.231 87.406 C 140.180 87.538,139.920 87.694,139.653 87.753 C 139.385 87.812,139.167 87.919,139.167 87.992 C 139.167 88.108,138.356 88.344,138.059 88.315 C 138.001 88.309,137.892 88.405,137.816 88.527 C 137.623 88.840,131.646 88.853,131.542 88.542 C 131.503 88.427,131.347 88.333,131.194 88.332 C 131.042 88.332,130.702 88.219,130.439 88.082 C 130.177 87.945,129.895 87.833,129.813 87.833 C 129.684 87.833,128.964 87.362,127.547 86.348 C 127.344 86.202,127.175 85.989,127.172 85.873 C 127.169 85.758,127.017 85.535,126.833 85.378 C 126.650 85.221,126.500 84.997,126.500 84.880 C 126.500 84.762,126.426 84.667,126.337 84.667 C 126.247 84.667,126.126 84.479,126.068 84.250 C 126.011 84.021,125.903 83.833,125.829 83.833 C 125.754 83.833,125.644 83.608,125.583 83.333 C 125.523 83.058,125.417 82.833,125.348 82.833 C 125.230 82.833,125.013 82.118,124.666 80.583 C 124.582 80.217,124.511 79.335,124.507 78.625 C 124.503 77.880,124.429 77.333,124.333 77.333 C 124.242 77.333,124.167 76.991,124.167 76.573 C 124.167 76.156,124.231 75.853,124.309 75.901 C 124.387 75.950,124.500 75.302,124.559 74.463 C 124.619 73.623,124.733 72.894,124.813 72.843 C 124.894 72.792,125.012 72.431,125.078 72.042 C 125.143 71.652,125.258 71.333,125.335 71.333 C 125.411 71.333,125.523 71.108,125.583 70.833 C 125.644 70.558,125.754 70.333,125.829 70.333 C 125.903 70.333,126.011 70.146,126.068 69.917 C 126.126 69.688,126.247 69.500,126.337 69.500 C 126.426 69.500,126.500 69.387,126.500 69.248 C 126.500 69.110,126.650 68.868,126.833 68.711 C 127.017 68.554,127.167 68.318,127.167 68.185 C 127.167 68.053,127.208 67.986,127.260 68.037 C 127.311 68.089,127.592 67.889,127.885 67.593 C 128.177 67.298,128.548 67.008,128.708 66.950 C 128.869 66.892,129.000 66.766,129.000 66.672 C 129.000 66.577,129.103 66.500,129.230 66.500 C 129.356 66.500,129.549 66.391,129.659 66.259 C 129.769 66.126,130.210 65.893,130.638 65.741 C 131.066 65.589,131.567 65.403,131.750 65.328 C 131.933 65.253,132.196 65.154,132.333 65.108 C 132.901 64.920,137.722 65.082,137.792 65.292 M180.128 65.301 C 180.165 65.411,180.298 65.500,180.425 65.500 C 180.709 65.500,182.062 66.185,182.139 66.368 C 182.169 66.440,182.283 66.500,182.391 66.500 C 182.499 66.500,182.773 66.725,183.000 67.000 C 183.227 67.275,183.508 67.500,183.623 67.500 C 183.739 67.500,183.833 67.585,183.833 67.689 C 183.833 67.793,184.012 68.044,184.231 68.247 C 184.449 68.449,184.679 68.776,184.742 68.974 C 184.804 69.172,184.926 69.333,185.011 69.333 C 185.097 69.333,185.167 69.453,185.167 69.599 C 185.167 69.746,185.274 70.064,185.406 70.308 C 185.651 70.761,185.909 71.652,185.861 71.875 C 185.846 71.944,185.908 72.000,186.000 72.000 C 186.217 72.000,186.228 80.276,186.012 80.409 C 185.926 80.462,185.805 80.918,185.742 81.421 C 185.679 81.925,185.561 82.379,185.481 82.429 C 185.400 82.479,185.333 82.632,185.333 82.769 C 185.333 83.154,184.653 84.567,184.396 84.717 C 184.270 84.790,184.167 84.926,184.167 85.018 C 184.167 85.251,182.086 87.333,181.854 87.333 C 181.751 87.333,181.667 87.407,181.667 87.497 C 181.667 87.587,181.479 87.707,181.250 87.765 C 181.021 87.822,180.833 87.930,180.833 88.005 C 180.833 88.079,180.590 88.193,180.292 88.258 C 179.994 88.322,179.696 88.460,179.631 88.563 C 179.461 88.830,173.700 88.823,173.534 88.555 C 173.468 88.448,173.208 88.308,172.957 88.245 C 172.705 88.182,172.500 88.072,172.500 88.000 C 172.500 87.928,172.306 87.821,172.069 87.761 C 171.832 87.702,171.476 87.482,171.277 87.273 C 171.079 87.063,170.785 86.844,170.625 86.784 C 170.465 86.725,170.333 86.558,170.333 86.412 C 170.333 86.266,170.258 86.193,170.167 86.250 C 170.075 86.307,170.000 86.234,170.000 86.088 C 170.000 85.942,169.887 85.780,169.750 85.727 C 169.612 85.674,169.500 85.532,169.500 85.411 C 169.500 85.290,169.402 85.091,169.282 84.970 C 169.037 84.722,168.767 84.147,168.807 83.958 C 168.821 83.890,168.762 83.833,168.674 83.833 C 168.587 83.833,168.466 83.571,168.406 83.250 C 168.345 82.929,168.237 82.667,168.164 82.667 C 168.091 82.667,167.978 82.273,167.914 81.792 C 167.849 81.310,167.724 80.827,167.635 80.717 C 167.395 80.420,167.427 74.148,167.670 73.998 C 167.775 73.933,167.851 73.813,167.838 73.731 C 167.778 73.365,168.057 71.928,168.267 71.527 C 168.394 71.283,168.498 70.952,168.499 70.792 C 168.500 70.631,168.569 70.500,168.653 70.500 C 168.738 70.500,168.855 70.281,168.914 70.014 C 168.972 69.747,169.128 69.486,169.260 69.436 C 169.392 69.385,169.500 69.229,169.500 69.089 C 169.500 68.948,169.575 68.833,169.667 68.833 C 169.758 68.833,169.833 68.726,169.833 68.594 C 169.833 68.345,171.420 66.647,171.841 66.446 C 171.974 66.383,172.383 66.147,172.750 65.923 C 173.117 65.698,173.548 65.511,173.708 65.507 C 173.869 65.503,174.000 65.430,174.000 65.344 C 174.000 64.971,180.004 64.929,180.128 65.301 M339.960 65.296 C 339.997 65.408,340.233 65.500,340.484 65.500 C 340.735 65.500,341.235 65.723,341.595 65.995 C 341.955 66.268,342.332 66.493,342.433 66.495 C 342.678 66.502,344.500 68.362,344.500 68.606 C 344.500 68.711,344.613 68.841,344.750 68.894 C 344.887 68.946,345.000 69.098,345.000 69.231 C 345.000 69.364,345.056 69.497,345.125 69.528 C 345.338 69.622,345.814 70.718,345.928 71.375 C 345.988 71.719,346.104 72.000,346.185 72.000 C 346.268 72.000,346.333 73.917,346.333 76.333 C 346.333 78.735,346.268 80.667,346.186 80.667 C 346.105 80.667,345.985 81.098,345.919 81.625 C 345.853 82.152,345.751 82.621,345.691 82.667 C 345.554 82.773,344.809 84.292,344.831 84.421 C 344.840 84.474,344.676 84.662,344.466 84.837 C 344.255 85.012,344.140 85.158,344.210 85.161 C 344.425 85.171,342.140 87.333,341.914 87.333 C 341.798 87.333,341.659 87.446,341.606 87.583 C 341.554 87.721,341.396 87.833,341.255 87.833 C 341.115 87.833,341.000 87.905,341.000 87.992 C 341.000 88.080,340.719 88.203,340.375 88.266 C 340.031 88.330,339.696 88.464,339.631 88.566 C 339.452 88.843,333.801 88.820,333.708 88.541 C 333.670 88.427,333.350 88.287,332.996 88.230 C 332.643 88.174,332.314 88.024,332.266 87.897 C 332.217 87.770,332.090 87.667,331.983 87.667 C 331.876 87.667,331.623 87.488,331.420 87.269 C 331.218 87.051,330.890 86.821,330.693 86.758 C 330.495 86.696,330.333 86.537,330.333 86.405 C 330.333 86.274,330.254 86.167,330.157 86.167 C 330.060 86.167,330.022 86.100,330.073 86.017 C 330.123 85.935,330.053 85.825,329.916 85.773 C 329.779 85.720,329.667 85.562,329.667 85.422 C 329.667 85.282,329.597 85.167,329.511 85.167 C 329.426 85.167,329.303 85.001,329.239 84.799 C 329.175 84.597,329.020 84.330,328.895 84.204 C 328.769 84.079,328.667 83.832,328.667 83.655 C 328.667 83.478,328.596 83.333,328.510 83.333 C 328.424 83.333,328.303 82.996,328.241 82.583 C 328.179 82.171,328.071 81.833,328.000 81.833 C 327.862 81.833,327.691 80.368,327.641 78.750 C 327.623 78.200,327.539 77.703,327.454 77.646 C 327.359 77.582,327.360 77.422,327.457 77.230 C 327.545 77.057,327.629 76.467,327.644 75.917 C 327.688 74.337,327.861 72.833,327.997 72.833 C 328.066 72.833,328.164 72.523,328.215 72.143 C 328.266 71.763,328.378 71.407,328.463 71.351 C 328.549 71.295,328.669 70.978,328.730 70.645 C 328.791 70.313,329.027 69.840,329.254 69.595 C 329.481 69.350,329.667 69.039,329.667 68.903 C 329.667 68.767,329.779 68.613,329.917 68.560 C 330.054 68.508,330.167 68.387,330.167 68.293 C 330.167 68.074,331.760 66.500,331.982 66.500 C 332.075 66.500,332.227 66.369,332.320 66.208 C 332.413 66.048,332.492 65.972,332.495 66.039 C 332.498 66.107,332.744 66.013,333.042 65.832 C 333.340 65.650,333.715 65.501,333.875 65.501 C 334.035 65.500,334.167 65.430,334.167 65.344 C 334.167 64.970,339.835 64.923,339.960 65.296 M384.465 65.269 C 384.530 65.370,384.865 65.504,385.208 65.567 C 385.552 65.630,385.833 65.753,385.833 65.841 C 385.833 65.928,385.930 66.000,386.048 66.000 C 386.166 66.000,386.522 66.222,386.840 66.493 C 387.157 66.765,387.470 66.990,387.536 66.993 C 387.706 67.003,388.833 68.150,388.833 68.313 C 388.833 68.388,388.982 68.629,389.164 68.849 C 389.345 69.070,389.551 69.327,389.622 69.421 C 389.896 69.787,390.317 70.776,390.419 71.292 C 390.478 71.590,390.588 71.833,390.664 71.833 C 390.739 71.833,390.853 72.283,390.917 72.834 C 390.981 73.384,391.100 73.876,391.183 73.927 C 391.375 74.046,391.382 79.833,391.190 79.833 C 391.111 79.833,390.995 80.331,390.933 80.940 C 390.870 81.549,390.710 82.203,390.576 82.394 C 390.443 82.585,390.333 82.874,390.333 83.037 C 390.333 83.200,390.264 83.333,390.180 83.333 C 390.096 83.333,389.977 83.558,389.917 83.833 C 389.856 84.108,389.739 84.333,389.657 84.333 C 389.574 84.333,389.459 84.521,389.402 84.750 C 389.344 84.979,389.228 85.167,389.143 85.167 C 389.059 85.167,388.940 85.298,388.880 85.458 C 388.735 85.841,387.412 87.167,387.175 87.167 C 387.073 87.167,386.948 87.275,386.898 87.406 C 386.847 87.538,386.587 87.694,386.319 87.753 C 386.052 87.812,385.833 87.928,385.833 88.011 C 385.833 88.095,385.535 88.210,385.170 88.269 C 384.805 88.327,384.543 88.434,384.587 88.507 C 384.721 88.722,382.252 88.884,380.205 88.793 C 379.155 88.747,378.248 88.634,378.190 88.542 C 378.082 88.373,377.032 88.073,376.779 88.139 C 376.704 88.159,376.689 88.098,376.747 88.004 C 376.806 87.910,376.733 87.833,376.586 87.833 C 376.293 87.833,375.327 87.204,375.117 86.875 C 375.043 86.760,374.913 86.667,374.827 86.667 C 374.613 86.667,374.000 86.128,374.000 85.940 C 374.000 85.857,373.821 85.623,373.603 85.420 C 373.384 85.218,373.154 84.890,373.092 84.693 C 373.029 84.495,372.913 84.333,372.833 84.333 C 372.684 84.333,372.409 83.678,372.467 83.458 C 372.485 83.390,372.428 83.333,372.341 83.333 C 372.253 83.333,372.133 83.071,372.072 82.750 C 372.012 82.429,371.906 82.167,371.836 82.167 C 371.727 82.167,371.454 80.691,371.509 80.394 C 371.520 80.335,371.442 80.234,371.336 80.168 C 371.089 80.016,371.041 74.184,371.285 74.024 C 371.375 73.965,371.496 73.510,371.553 73.013 C 371.611 72.515,371.741 72.057,371.843 71.994 C 371.945 71.931,372.025 71.813,372.022 71.731 C 372.006 71.397,372.213 70.833,372.351 70.833 C 372.433 70.833,372.492 70.777,372.482 70.708 C 372.446 70.457,372.710 69.833,372.853 69.833 C 372.934 69.833,373.000 69.718,373.000 69.578 C 373.000 69.437,373.228 69.100,373.506 68.828 C 373.784 68.556,373.965 68.333,373.908 68.333 C 373.721 68.333,375.386 66.851,376.105 66.378 C 376.726 65.969,377.823 65.500,378.158 65.500 C 378.346 65.500,378.500 65.430,378.500 65.344 C 378.500 64.985,384.235 64.912,384.465 65.269 M75.278 92.263 C 75.333 92.407,75.207 92.913,74.998 93.388 C 74.321 94.922,74.200 95.235,73.924 96.167 C 73.774 96.671,73.580 97.314,73.493 97.595 C 73.405 97.877,73.333 98.405,73.333 98.770 C 73.333 99.135,73.251 99.515,73.151 99.616 C 72.794 99.972,73.545 104.972,74.123 106.091 C 75.002 107.793,75.392 108.869,75.226 109.133 C 75.020 109.460,15.440 109.673,14.750 109.349 C 14.567 109.263,14.111 109.150,13.737 109.099 C 12.662 108.951,10.740 107.894,9.756 106.910 C 8.801 105.955,7.729 104.032,7.559 102.968 C 7.502 102.615,7.391 102.286,7.311 102.236 C 7.124 102.120,7.122 99.547,7.310 99.431 C 7.388 99.383,7.497 98.985,7.551 98.547 C 7.894 95.779,11.226 92.722,14.500 92.171 C 16.176 91.889,75.169 91.978,75.278 92.263 " stroke="none" fill="#5ceb7c" fill-rule="evenodd"></path><path id="path3" d="M38.042 7.615 C 38.202 7.657,38.465 7.657,38.625 7.615 C 38.785 7.573,38.654 7.539,38.333 7.539 C 38.012 7.539,37.881 7.573,38.042 7.615 M114.333 7.565 C 114.333 7.601,114.591 7.660,114.905 7.697 C 115.219 7.734,115.440 7.704,115.395 7.632 C 115.314 7.501,114.333 7.440,114.333 7.565 M106.910 9.875 L 106.083 10.750 106.958 9.923 C 107.771 9.154,107.910 9.000,107.785 9.000 C 107.759 9.000,107.365 9.394,106.910 9.875 M118.017 9.042 C 118.058 9.065,118.501 9.458,119.004 9.917 L 119.917 10.750 119.090 9.875 C 118.635 9.394,118.191 9.000,118.103 9.000 C 118.016 9.000,117.977 9.019,118.017 9.042 M97.415 57.500 C 97.415 81.746,97.435 91.665,97.458 79.542 C 97.482 67.419,97.482 47.581,97.458 35.458 C 97.435 23.335,97.415 33.254,97.415 57.500 M31.732 13.905 C 31.681 14.035,31.668 14.317,31.702 14.530 C 31.748 14.814,31.787 14.751,31.849 14.292 C 31.936 13.645,31.890 13.492,31.732 13.905 M121.560 16.000 C 121.560 16.871,121.588 17.227,121.623 16.792 C 121.657 16.356,121.657 15.644,121.623 15.208 C 121.588 14.773,121.560 15.129,121.560 16.000 M119.834 20.916 C 119.619 21.145,119.475 21.360,119.513 21.394 C 119.552 21.428,119.758 21.241,119.971 20.978 C 120.448 20.390,120.364 20.352,119.834 20.916 M104.644 24.544 C 104.715 24.615,106.755 24.652,109.178 24.628 L 113.583 24.583 109.050 24.500 C 106.556 24.454,104.574 24.474,104.644 24.544 M49.333 26.417 C 48.650 27.104,48.129 27.667,48.175 27.667 C 48.221 27.667,48.817 27.104,49.500 26.417 C 50.183 25.729,50.704 25.167,50.658 25.167 C 50.612 25.167,50.016 25.729,49.333 26.417 M76.417 30.833 C 76.868 31.292,77.275 31.667,77.321 31.667 C 77.367 31.667,77.035 31.292,76.583 30.833 C 76.132 30.375,75.725 30.000,75.679 30.000 C 75.633 30.000,75.965 30.375,76.417 30.833 M55.824 31.458 L 55.250 32.083 55.875 31.509 C 56.219 31.193,56.500 30.912,56.500 30.884 C 56.500 30.757,56.359 30.877,55.824 31.458 M65.208 64.453 C 65.460 64.491,65.873 64.491,66.125 64.453 C 66.377 64.415,66.171 64.383,65.667 64.383 C 65.162 64.383,64.956 64.415,65.208 64.453 M67.711 64.453 C 67.964 64.491,68.339 64.490,68.544 64.451 C 68.749 64.411,68.542 64.380,68.083 64.381 C 67.625 64.382,67.457 64.415,67.711 64.453 M82.740 65.875 L 82.250 66.417 82.792 65.927 C 83.297 65.471,83.410 65.333,83.281 65.333 C 83.252 65.333,83.009 65.577,82.740 65.875 M66.542 71.948 C 66.702 71.990,66.965 71.990,67.125 71.948 C 67.285 71.906,67.154 71.872,66.833 71.872 C 66.512 71.872,66.381 71.906,66.542 71.948 M15.224 92.128 C 15.051 92.237,44.507 92.235,66.583 92.123 C 71.258 92.100,61.658 92.063,45.250 92.043 C 28.842 92.022,15.330 92.060,15.224 92.128 M9.829 94.792 L 8.750 95.917 9.875 94.838 C 10.920 93.836,11.076 93.667,10.954 93.667 C 10.928 93.667,10.422 94.173,9.829 94.792 M73.234 97.732 C 73.185 97.860,73.170 98.254,73.201 98.607 C 73.254 99.203,73.264 99.186,73.337 98.375 C 73.418 97.482,73.392 97.320,73.234 97.732 M7.565 98.405 C 7.515 98.535,7.502 98.817,7.536 99.030 C 7.581 99.314,7.620 99.251,7.682 98.792 C 7.769 98.145,7.723 97.992,7.565 98.405 M80.111 99.778 C 79.958 99.931,79.970 101.795,80.125 101.891 C 80.194 101.933,80.250 101.450,80.250 100.817 C 80.250 100.185,80.244 99.667,80.236 99.667 C 80.228 99.667,80.172 99.717,80.111 99.778 M73.214 102.917 C 73.216 103.375,73.248 103.543,73.286 103.289 C 73.325 103.036,73.324 102.661,73.284 102.456 C 73.244 102.251,73.213 102.458,73.214 102.917 M9.750 106.833 C 10.108 107.200,10.438 107.500,10.484 107.500 C 10.530 107.500,10.275 107.200,9.917 106.833 C 9.559 106.467,9.228 106.167,9.182 106.167 C 9.137 106.167,9.392 106.467,9.750 106.833 M82.750 106.939 C 82.842 107.020,83.179 107.310,83.499 107.585 L 84.082 108.083 83.666 107.610 C 83.437 107.349,83.100 107.059,82.917 106.964 C 82.733 106.870,82.658 106.859,82.750 106.939 M86.313 109.047 C 86.394 109.127,86.675 109.166,86.938 109.133 C 87.379 109.078,87.367 109.066,86.792 108.987 C 86.434 108.937,86.229 108.963,86.313 109.047 M90.667 109.000 L 90.083 109.123 90.615 109.145 C 90.908 109.157,91.193 109.092,91.250 109.000 C 91.307 108.908,91.330 108.843,91.302 108.855 C 91.273 108.867,90.987 108.932,90.667 109.000 M13.875 109.115 C 14.035 109.157,14.298 109.157,14.458 109.115 C 14.619 109.073,14.487 109.039,14.167 109.039 C 13.846 109.039,13.715 109.073,13.875 109.115 " stroke="none" fill="#45af5c" fill-rule="evenodd"></path><path id="path4" d="M38.942 7.292 C 38.900 7.360,52.527 7.417,69.224 7.417 C 98.700 7.417,99.583 7.426,99.557 7.726 C 99.539 7.945,99.583 7.984,99.708 7.858 C 99.834 7.733,99.823 7.605,99.673 7.424 C 99.442 7.145,39.114 7.014,38.942 7.292 M111.609 7.292 C 111.566 7.360,111.918 7.395,112.391 7.369 C 113.923 7.284,114.110 7.217,112.885 7.192 C 112.226 7.178,111.651 7.223,111.609 7.292 M34.005 9.912 C 33.325 10.597,32.801 11.178,32.842 11.203 C 32.883 11.229,33.485 10.669,34.180 9.958 C 34.875 9.248,35.398 8.667,35.342 8.667 C 35.287 8.667,34.685 9.227,34.005 9.912 M118.993 9.708 C 119.684 10.444,119.833 10.577,119.833 10.451 C 119.833 10.425,119.477 10.068,119.042 9.660 L 118.250 8.917 118.993 9.708 M105.698 11.160 C 105.497 11.431,105.333 11.708,105.333 11.776 C 105.333 11.843,105.521 11.644,105.750 11.333 C 105.979 11.023,106.167 10.746,106.167 10.718 C 106.167 10.581,106.031 10.709,105.698 11.160 M97.732 12.238 C 97.681 12.369,97.668 12.650,97.702 12.863 C 97.748 13.148,97.787 13.085,97.849 12.625 C 97.936 11.978,97.890 11.825,97.732 12.238 M104.911 12.583 C 104.868 12.721,104.797 12.950,104.752 13.092 C 104.707 13.234,104.736 13.310,104.815 13.261 C 104.895 13.212,104.996 12.983,105.040 12.752 C 105.127 12.297,105.038 12.179,104.911 12.583 M31.911 13.083 C 31.868 13.221,31.797 13.450,31.752 13.592 C 31.707 13.734,31.736 13.810,31.815 13.761 C 31.895 13.712,31.996 13.483,32.040 13.252 C 32.127 12.797,32.038 12.679,31.911 13.083 M104.409 14.043 C 104.365 14.159,104.348 16.540,104.373 19.335 L 104.417 24.417 104.500 19.125 C 104.546 16.214,104.562 13.833,104.536 13.833 C 104.511 13.833,104.453 13.928,104.409 14.043 M31.410 15.042 C 31.367 15.156,31.350 30.887,31.374 50.000 L 31.417 84.750 31.500 49.792 C 31.546 30.565,31.562 14.833,31.536 14.833 C 31.511 14.833,31.454 14.927,31.410 15.042 M67.542 19.782 C 67.702 19.823,67.965 19.823,68.125 19.782 C 68.285 19.740,68.154 19.705,67.833 19.705 C 67.512 19.705,67.381 19.740,67.542 19.782 M63.544 19.953 C 63.797 19.991,64.172 19.990,64.377 19.951 C 64.582 19.911,64.375 19.880,63.917 19.881 C 63.458 19.882,63.291 19.915,63.544 19.953 M68.792 19.951 C 68.998 19.991,69.335 19.991,69.542 19.951 C 69.748 19.911,69.579 19.879,69.167 19.879 C 68.754 19.879,68.585 19.911,68.792 19.951 M117.782 23.089 C 117.525 23.315,117.381 23.500,117.462 23.500 C 117.542 23.500,117.785 23.313,118.000 23.083 C 118.498 22.553,118.388 22.556,117.782 23.089 M114.500 24.333 L 113.750 24.450 114.448 24.475 C 114.833 24.489,115.193 24.425,115.250 24.333 C 115.307 24.242,115.330 24.178,115.302 24.192 C 115.273 24.205,114.912 24.269,114.500 24.333 M82.000 25.583 C 82.498 26.087,82.943 26.500,82.989 26.500 C 83.034 26.500,82.665 26.087,82.167 25.583 C 81.669 25.079,81.224 24.667,81.178 24.667 C 81.132 24.667,81.502 25.079,82.000 25.583 M64.621 27.120 C 64.917 27.157,65.442 27.158,65.788 27.122 C 66.134 27.086,65.892 27.055,65.250 27.055 C 64.608 27.054,64.325 27.083,64.621 27.120 M67.288 27.120 C 67.584 27.157,68.109 27.158,68.455 27.122 C 68.800 27.086,68.558 27.055,67.917 27.055 C 67.275 27.054,66.992 27.083,67.288 27.120 M50.583 42.167 C 50.520 42.455,50.503 42.725,50.545 42.768 C 50.588 42.810,50.671 42.605,50.729 42.313 C 50.868 41.618,50.733 41.483,50.583 42.167 M42.025 42.695 C 42.011 42.939,41.957 43.277,41.904 43.445 C 41.813 43.733,41.819 43.734,41.998 43.454 C 42.103 43.291,42.157 42.954,42.119 42.704 L 42.050 42.250 42.025 42.695 M50.379 45.333 C 50.379 45.746,50.411 45.915,50.451 45.708 C 50.491 45.502,50.491 45.165,50.451 44.958 C 50.411 44.752,50.379 44.921,50.379 45.333 M50.379 47.167 C 50.379 47.579,50.411 47.748,50.451 47.542 C 50.491 47.335,50.491 46.998,50.451 46.792 C 50.411 46.585,50.379 46.754,50.379 47.167 M77.162 60.625 L 76.083 61.750 77.208 60.671 C 77.827 60.078,78.333 59.572,78.333 59.546 C 78.333 59.424,78.164 59.580,77.162 60.625 M63.833 64.331 C 63.971 64.421,64.265 64.496,64.486 64.497 C 65.021 64.501,64.885 64.406,64.167 64.274 C 63.756 64.199,63.657 64.216,63.833 64.331 M69.250 64.333 C 68.789 64.451,68.782 64.462,69.167 64.478 C 69.396 64.487,69.696 64.422,69.833 64.333 C 70.117 64.150,69.970 64.150,69.250 64.333 M62.294 71.618 C 62.501 71.658,62.801 71.656,62.960 71.615 C 63.120 71.573,62.950 71.540,62.583 71.542 C 62.217 71.544,62.086 71.578,62.294 71.618 M31.645 85.042 C 31.862 85.317,33.420 85.333,60.184 85.333 L 88.493 85.333 88.544 88.667 L 88.594 92.000 88.589 88.625 L 88.583 85.250 60.266 85.208 C 37.954 85.175,31.893 85.122,31.683 84.958 C 31.447 84.774,31.443 84.783,31.645 85.042 M13.675 92.324 C 13.519 92.423,13.696 92.444,14.175 92.382 C 14.583 92.330,14.948 92.260,14.986 92.227 C 15.142 92.091,13.898 92.184,13.675 92.324 M86.438 92.299 C 86.393 92.371,86.633 92.404,86.970 92.372 C 88.001 92.275,88.122 92.206,87.302 92.186 C 86.871 92.175,86.483 92.226,86.438 92.299 M82.579 94.708 L 81.417 95.917 82.625 94.754 C 83.747 93.675,83.909 93.500,83.787 93.500 C 83.762 93.500,83.218 94.044,82.579 94.708 M8.458 96.256 C 8.042 96.813,8.096 96.968,8.519 96.430 C 8.713 96.184,8.844 95.956,8.811 95.924 C 8.777 95.892,8.619 96.041,8.458 96.256 M73.564 96.740 C 73.513 96.872,73.501 97.116,73.537 97.282 C 73.578 97.470,73.635 97.380,73.689 97.042 C 73.780 96.474,73.721 96.332,73.564 96.740 M80.745 97.083 C 80.702 97.221,80.630 97.450,80.585 97.592 C 80.540 97.734,80.569 97.810,80.649 97.761 C 80.728 97.712,80.830 97.483,80.874 97.252 C 80.961 96.797,80.871 96.679,80.745 97.083 M7.745 97.583 C 7.702 97.721,7.630 97.950,7.585 98.092 C 7.540 98.234,7.569 98.310,7.649 98.261 C 7.728 98.212,7.830 97.983,7.874 97.752 C 7.961 97.297,7.871 97.179,7.745 97.583 M80.257 98.542 C 80.120 98.977,80.065 99.813,80.179 99.742 C 80.245 99.702,80.327 99.368,80.362 99.001 C 80.425 98.336,80.382 98.146,80.257 98.542 M7.278 99.444 C 7.124 99.598,7.137 102.129,7.292 102.224 C 7.360 102.267,7.417 101.634,7.417 100.817 C 7.417 100.001,7.410 99.333,7.403 99.333 C 7.395 99.333,7.339 99.383,7.278 99.444 M80.140 102.515 C 80.174 102.875,80.252 103.199,80.312 103.237 C 80.373 103.275,80.395 103.011,80.360 102.652 C 80.326 102.292,80.248 101.967,80.188 101.930 C 80.127 101.892,80.105 102.156,80.140 102.515 M73.503 104.264 C 73.504 104.440,73.581 104.696,73.674 104.833 C 73.798 105.016,73.813 104.948,73.732 104.583 C 73.595 103.971,73.499 103.837,73.503 104.264 M85.419 108.838 C 85.461 108.905,85.681 108.996,85.909 109.039 C 86.137 109.083,86.289 109.063,86.247 108.996 C 86.206 108.928,85.985 108.838,85.758 108.794 C 85.530 108.750,85.378 108.770,85.419 108.838 M75.066 109.168 C 74.954 109.279,64.807 109.321,44.798 109.293 C 28.243 109.269,14.733 109.306,14.776 109.375 C 14.943 109.646,74.941 109.522,75.167 109.250 C 75.399 108.970,75.325 108.909,75.066 109.168 M87.482 109.383 C 87.556 109.456,88.134 109.493,88.767 109.465 L 89.917 109.413 88.633 109.332 C 87.926 109.287,87.409 109.310,87.482 109.383 " stroke="none" fill="#4cbe67" fill-rule="evenodd"></path></g></svg>